<?xml version="1.0" encoding="utf-8"?>
<!-- Generator: Adobe Illustrator 27.2.0, SVG Export Plug-In . SVG Version: 6.00 Build 0)  -->
<svg version="1.1" id="Layer_1" xmlns="http://www.w3.org/2000/svg" xmlns:xlink="http://www.w3.org/1999/xlink" x="0px" y="0px"
	 viewBox="0 0 360 360" style="enable-background:new 0 0 360 360;" xml:space="preserve">
<style type="text/css">
	.st0{fill:#FFFFFF;}
	.st1{fill:#292883;}
	.st2{fill:#2E3192;}
	.st3{fill-rule:evenodd;clip-rule:evenodd;fill:url(#SVGID_1_);}
	.st4{fill:url(#SVGID_00000140698101506757707810000005241463434788836002_);}
	.st5{fill:url(#SVGID_00000072270800944636215510000016189807577015412873_);}
	.st6{fill:url(#SVGID_00000055692008557489722020000008307268973847529145_);}
	.st7{fill:url(#SVGID_00000018932615966372232280000014217252762120435341_);}
	.st8{fill-rule:evenodd;clip-rule:evenodd;fill:url(#SVGID_00000109017217801894372890000016715867986471292803_);}
	.st9{fill:url(#SVGID_00000059988492740836952030000010344790871107484848_);}
</style>
<g>
	<path class="st1" d="M167.45,296.92c0,1.38-0.54,2.44-1.63,3.18c-1.09,0.74-2.67,1.11-4.75,1.11c-2.08,0-3.66-0.37-4.75-1.11
		c-1.09-0.74-1.63-1.8-1.63-3.18v-8.87c0-1.38,0.54-2.44,1.63-3.18c1.09-0.74,2.67-1.11,4.75-1.11c2.07,0,3.66,0.37,4.75,1.11
		c1.09,0.74,1.63,1.8,1.63,3.18v1.66h-4.04v-1.83c0-1.12-0.74-1.68-2.22-1.68c-1.48,0-2.22,0.56-2.22,1.68v9.21
		c0,1.1,0.74,1.66,2.22,1.66c1.48,0,2.22-0.55,2.22-1.66v-2.44h4.04V296.92z"/>
	<path class="st1" d="M171.11,284.87c1.06-0.74,2.63-1.11,4.71-1.11c2.07,0,3.64,0.37,4.71,1.11c1.06,0.74,1.6,1.8,1.6,3.18v0.54
		h-4.05v-0.71c0-0.58-0.18-1.01-0.54-1.28c-0.36-0.27-0.89-0.4-1.59-0.4c-0.7,0-1.23,0.13-1.6,0.4c-0.36,0.27-0.54,0.69-0.54,1.28
		c0,0.72,0.31,1.34,0.91,1.88c0.61,0.54,1.52,1.14,2.74,1.83c1.01,0.58,1.83,1.1,2.45,1.55c0.62,0.45,1.15,0.99,1.6,1.62
		c0.44,0.63,0.66,1.36,0.66,2.17c0,1.38-0.54,2.44-1.63,3.18c-1.09,0.74-2.67,1.11-4.75,1.11c-2.07,0-3.66-0.37-4.75-1.11
		c-1.09-0.74-1.63-1.8-1.63-3.18v-1.05h4.05v1.22c0,1.1,0.74,1.66,2.22,1.66c1.48,0,2.22-0.55,2.22-1.66c0-0.71-0.31-1.34-0.91-1.88
		c-0.61-0.54-1.52-1.15-2.74-1.83c-1.01-0.59-1.83-1.1-2.45-1.55c-0.62-0.45-1.15-0.99-1.59-1.62c-0.44-0.63-0.66-1.36-0.66-2.17
		C169.52,286.67,170.05,285.61,171.11,284.87z"/>
	<path class="st1" d="M188.89,283.96l0,17.05h-4.28v-17.05H188.89z"/>
	<path class="st1" d="M200.64,300.23c-0.05-0.24-0.08-0.68-0.08-1.32v-2.68c0-0.78-0.22-1.34-0.66-1.67
		c-0.44-0.33-1.15-0.5-2.14-0.5h-1.48v6.94H192v-17.05h6.46c2.2,0,3.81,0.32,4.82,0.96c1.01,0.64,1.52,1.63,1.52,2.96v1.34
		c0,1.75-0.93,2.91-2.8,3.46c1.01,0.26,1.74,0.69,2.18,1.3c0.44,0.61,0.66,1.39,0.66,2.33v2.63c0,0.49,0.03,0.88,0.08,1.18
		c0.05,0.3,0.18,0.6,0.39,0.89h-4.36C200.79,300.74,200.69,300.48,200.64,300.23z M196.28,291.63h1.67c0.86,0,1.5-0.14,1.93-0.41
		c0.43-0.28,0.64-0.74,0.64-1.39v-1.68c0-0.62-0.18-1.06-0.53-1.34c-0.35-0.28-0.9-0.41-1.65-0.41h-2.06V291.63z"/>
</g>
<g>
	<path class="st2" d="M79.24,318.23h-4.09c-0.25,0-0.37,0.13-0.37,0.38v1.53c0,0.42-0.25,0.63-0.74,0.63h-2.14
		c-0.5,0-0.74-0.21-0.74-0.63v-7.94c0-0.67-0.12-1.17-0.37-1.48c-0.25-0.31-0.67-0.47-1.27-0.47h-0.4c-0.5,0-0.74-0.22-0.74-0.66
		v-1.53c0-0.44,0.25-0.66,0.74-0.66h0.4c1.69,0,2.99,0.41,3.9,1.22c0.91,0.81,1.36,1.97,1.36,3.46v2.96c0,0.26,0.12,0.38,0.37,0.38
		h4.09c0.25,0,0.37-0.13,0.37-0.38v-4.41c0-0.25-0.12-0.38-0.37-0.38H78.1c-0.68,0-1.02-0.22-1.02-0.66v-1.56
		c0-0.42,0.34-0.63,1.02-0.63h7.18c0.5,0,0.74,0.21,0.74,0.63v1.56c0,0.44-0.25,0.66-0.74,0.66h-1.67c-0.25,0-0.37,0.13-0.37,0.38
		v13.2c0,0.42-0.25,0.63-0.74,0.63h-2.14c-0.5,0-0.74-0.21-0.74-0.63v-5.23C79.62,318.35,79.49,318.23,79.24,318.23z"/>
	<path class="st2" d="M89.83,324.47H87.7c-0.5,0-0.74-0.21-0.74-0.63v-13.2c0-0.25-0.12-0.38-0.37-0.38h-1.67
		c-0.5,0-0.74-0.22-0.74-0.66v-1.56c0-0.42,0.25-0.63,0.74-0.63h7.71c0.5,0,0.74,0.21,0.74,0.63v1.56c0,0.44-0.25,0.66-0.74,0.66
		h-1.67c-0.25,0-0.37,0.13-0.37,0.38v13.2C90.57,324.26,90.33,324.47,89.83,324.47z"/>
	<path class="st2" d="M97.66,314.25v-3.62c0-0.24-0.1-0.36-0.31-0.38h-5.11c-0.5,0-0.74-0.22-0.74-0.66v-1.56
		c0-0.42,0.25-0.63,0.74-0.63h10.87c0.5,0,0.74,0.21,0.74,0.63v1.56c0,0.44-0.25,0.66-0.74,0.66h-1.46c-0.25,0-0.37,0.13-0.37,0.38
		v3.81c0,1.08-0.32,1.95-0.97,2.6s-1.53,0.99-2.65,0.99h-0.16l3.84,5.37c0.12,0.15,0.19,0.3,0.19,0.47c0,0.4-0.22,0.6-0.65,0.6
		h-2.45c-0.27,0-0.48-0.12-0.65-0.36l-3.53-5.07l-0.9-1.04v-1.97c0-0.24,0.09-0.43,0.26-0.58c0.18-0.15,0.4-0.22,0.67-0.22h2.29
		C97.3,315.24,97.66,314.91,97.66,314.25z"/>
	<path class="st2" d="M107.88,317.35v2.49c0,0.71,0.14,1.2,0.42,1.47c0.28,0.26,0.84,0.41,1.69,0.42h0.28c0.5,0,0.74,0.22,0.74,0.66
		v1.42c0,0.44-0.25,0.66-0.74,0.66h-1.21c-1.65,0-2.86-0.39-3.64-1.18c-0.77-0.79-1.16-1.97-1.16-3.56v-2.58
		c0-1.48,0.47-2.62,1.41-3.44s2.25-1.22,3.95-1.22h3.28c0.25,0,0.37-0.13,0.37-0.38v-1.48c0-0.24-0.1-0.36-0.31-0.38h-10.21
		c-0.5,0-0.74-0.22-0.74-0.66v-1.56c0-0.42,0.25-0.63,0.74-0.63h16.19c0.5,0,0.74,0.21,0.74,0.63v1.56c0,0.44-0.25,0.66-0.74,0.66
		h-1.67c-0.25,0-0.37,0.13-0.37,0.38v13.2c0,0.42-0.25,0.63-0.74,0.63h-2.14c-0.5,0-0.74-0.21-0.74-0.63v-8.03
		c0-0.26-0.12-0.38-0.37-0.38h-2.75C108.63,315.43,107.88,316.07,107.88,317.35z"/>
	<path class="st2" d="M138.61,310.64v2.25h0.12c0.47-0.71,1.36-1.07,2.66-1.07h0.59c1.67,0,2.97,0.41,3.88,1.22s1.38,1.96,1.38,3.44
		v1.15c-0.02,1.46-0.48,2.6-1.38,3.42c-0.9,0.82-2.19,1.23-3.88,1.23h-1.15c-0.5,0-0.74-0.22-0.74-0.66v-1.56
		c0-0.42,0.25-0.63,0.74-0.63h0.59c1.51,0,2.26-0.66,2.26-1.97v-0.82c0-1.32-0.79-1.97-2.38-1.97h-0.71c-1.32,0-1.98,0.58-1.98,1.73
		v7.42c0,0.44-0.25,0.66-0.74,0.66h-2.07c-0.48,0-0.71-0.22-0.71-0.66v-2.6h-0.12c-0.47,0.71-1.36,1.07-2.66,1.07h-0.59
		c-1.67,0-2.97-0.41-3.88-1.22c-0.92-0.81-1.38-1.96-1.38-3.44v-1.15c0.02-1.46,0.48-2.6,1.38-3.42c0.9-0.82,2.19-1.23,3.88-1.23
		h1.15c0.5,0,0.74,0.22,0.74,0.66v1.56c0,0.42-0.25,0.63-0.74,0.63h-0.59c-1.51,0-2.26,0.66-2.26,1.97v0.82
		c0,1.31,0.79,1.97,2.38,1.97h0.71c1.32,0,1.98-0.58,1.98-1.73v-7.07c0-0.25-0.12-0.38-0.37-0.38h-9.35c-0.5,0-0.74-0.22-0.74-0.66
		v-1.56c0-0.42,0.25-0.63,0.74-0.63h23c0.5,0,0.74,0.21,0.74,0.63v1.56c0,0.44-0.25,0.66-0.74,0.66h-9.38
		C138.74,310.25,138.61,310.38,138.61,310.64z"/>
	<path class="st2" d="M152.92,324.47h-2.14c-0.5,0-0.74-0.21-0.74-0.63v-13.2c0-0.25-0.12-0.38-0.37-0.38h-1.67
		c-0.5,0-0.74-0.22-0.74-0.66v-1.56c0-0.42,0.25-0.63,0.74-0.63h7.71c0.5,0,0.74,0.21,0.74,0.63v1.56c0,0.44-0.25,0.66-0.74,0.66
		h-1.67c-0.25,0-0.37,0.13-0.37,0.38v13.2C153.66,324.26,153.41,324.47,152.92,324.47z"/>
	<path class="st2" d="M164.74,319.49c-1.11,0-1.67-0.93-1.67-2.79c0-0.97,0.36-1.74,1.07-2.33c0.71-0.58,1.64-0.88,2.77-0.88h4.77
		c0.25,0,0.37-0.13,0.37-0.38v-2.47c0-0.24-0.1-0.36-0.31-0.38h-9.6c-0.5,0-0.74-0.22-0.74-0.66v-1.56c0-0.42,0.25-0.63,0.74-0.63
		h15.57c0.5,0,0.74,0.21,0.74,0.63v1.56c0,0.44-0.25,0.66-0.74,0.66h-1.67c-0.25,0-0.37,0.13-0.37,0.38v13.2
		c0,0.42-0.25,0.63-0.74,0.63h-2.14c-0.5,0-0.74-0.21-0.74-0.63v-7.09c0-0.26-0.12-0.38-0.37-0.38h-3.34c-0.39,0-0.69,0.02-0.9,0.05
		c-0.52,0.09-0.77,0.41-0.77,0.96l0.28,1.48c0,0.42-0.23,0.63-0.68,0.63H164.74z"/>
	<path class="st2" d="M191.55,310.64v13.18c0,0.44-0.25,0.66-0.74,0.66h-2.17c-0.47,0-0.71-0.22-0.71-0.66v-2.36h-0.12
		c-0.21,0.31-0.57,0.57-1.08,0.77s-1.1,0.3-1.76,0.3h-0.93c-1.67,0-2.97-0.41-3.9-1.22c-0.93-0.81-1.39-1.96-1.39-3.44v-1.29
		c0.02-1.46,0.48-2.6,1.38-3.42c0.9-0.82,2.19-1.23,3.88-1.23h1.7c0.5,0,0.74,0.22,0.74,0.66v1.56c0,0.42-0.25,0.63-0.74,0.63h-1.05
		c-1.51,0-2.26,0.66-2.26,1.97v0.96c0,0.66,0.17,1.15,0.51,1.48c0.34,0.33,0.9,0.49,1.69,0.49h0.93c0.85,0,1.46-0.21,1.84-0.62
		s0.57-0.93,0.57-1.55v-6.88c0-0.25-0.12-0.38-0.37-0.38h-10.21c-0.5,0-0.74-0.22-0.74-0.66v-1.56c0-0.42,0.25-0.63,0.74-0.63h16.25
		c0.5,0,0.74,0.21,0.74,0.63v1.56c0,0.44-0.25,0.66-0.74,0.66h-1.67C191.67,310.25,191.55,310.38,191.55,310.64z"/>
	<path class="st2" d="M198.14,324.47H196c-0.5,0-0.74-0.21-0.74-0.63v-13.2c0-0.25-0.12-0.38-0.37-0.38h-1.67
		c-0.5,0-0.74-0.22-0.74-0.66v-1.56c0-0.42,0.25-0.63,0.74-0.63h7.71c0.5,0,0.74,0.21,0.74,0.63v1.56c0,0.44-0.25,0.66-0.74,0.66
		h-1.67c-0.25,0-0.37,0.13-0.37,0.38v13.2C198.88,324.26,198.63,324.47,198.14,324.47z"/>
	<path class="st2" d="M204.89,314.91h-2.69c-0.5,0-0.74-0.21-0.74-0.63v-1.56c0-0.44,0.25-0.66,0.74-0.66h8.67
		c0.5,0,0.74,0.22,0.74,0.66v1.56c0,0.42-0.25,0.63-0.74,0.63h-1.55c-1.36,0-2.04,0.65-2.04,1.95v0.71c0,1.26,0.74,1.89,2.23,1.89
		h1.55c0.8,0,1.42-0.21,1.84-0.62c0.42-0.41,0.63-0.98,0.63-1.71v-6.49c0-0.25-0.12-0.38-0.37-0.38h-12.6
		c-0.5,0-0.74-0.22-0.74-0.66v-1.56c0-0.42,0.25-0.63,0.74-0.63h18.67c0.5,0,0.74,0.21,0.74,0.63v1.56c0,0.44-0.25,0.66-0.74,0.66
		h-1.67c-0.25,0-0.37,0.13-0.37,0.38v13.18c0,0.44-0.25,0.66-0.74,0.66h-2.2c-0.47,0-0.71-0.22-0.71-0.66v-2.82h-0.12
		c-0.5,0.88-1.5,1.31-3,1.31h-1.52c-1.67,0-2.95-0.39-3.84-1.16c-0.89-0.78-1.33-1.9-1.33-3.38v-0.58c0-1.15,0.39-1.87,1.18-2.16
		V314.91z"/>
	<path class="st2" d="M223.77,324.47h-2.14c-0.5,0-0.74-0.21-0.74-0.63v-13.2c0-0.25-0.12-0.38-0.37-0.38h-1.67
		c-0.5,0-0.74-0.22-0.74-0.66v-1.56c0-0.42,0.25-0.63,0.74-0.63h7.71c0.5,0,0.74,0.21,0.74,0.63v1.56c0,0.44-0.25,0.66-0.74,0.66
		h-1.67c-0.25,0-0.37,0.13-0.37,0.38v13.2C224.51,324.26,224.26,324.47,223.77,324.47z"/>
	<path class="st2" d="M231.6,314.25v-3.62c0-0.24-0.1-0.36-0.31-0.38h-5.11c-0.5,0-0.74-0.22-0.74-0.66v-1.56
		c0-0.42,0.25-0.63,0.74-0.63h10.87c0.5,0,0.74,0.21,0.74,0.63v1.56c0,0.44-0.25,0.66-0.74,0.66h-1.46c-0.25,0-0.37,0.13-0.37,0.38
		v3.81c0,1.08-0.32,1.95-0.97,2.6s-1.53,0.99-2.65,0.99h-0.16l3.84,5.37c0.12,0.15,0.19,0.3,0.19,0.47c0,0.4-0.22,0.6-0.65,0.6
		h-2.45c-0.27,0-0.48-0.12-0.65-0.36l-3.53-5.07l-0.9-1.04v-1.97c0-0.24,0.09-0.43,0.26-0.58c0.18-0.15,0.4-0.22,0.67-0.22h2.29
		C231.24,315.24,231.6,314.91,231.6,314.25z"/>
	<path class="st2" d="M252.25,319.05h-2.88c-2.79,0-4.18-1.17-4.18-3.51v-0.41c0-1.1,0.38-1.93,1.13-2.49
		c0.75-0.57,1.77-0.85,3.05-0.85H252c0.25,0,0.37-0.13,0.37-0.38v-0.77c0-0.25-0.12-0.38-0.37-0.38h-8.51
		c-0.5,0-0.74-0.21-0.74-0.63v-1.59c0-0.42,0.25-0.63,0.74-0.63h14.83c0.5,0,0.74,0.21,0.74,0.63v1.59c0,0.42-0.25,0.63-0.74,0.63
		h-1.98c-0.25,0-0.37,0.13-0.37,0.38v2.47c0,1-0.61,1.51-1.83,1.51h-4.49c-0.35,0-0.59,0.07-0.73,0.21c-0.13,0.14-0.2,0.36-0.2,0.67
		v0.11c0,0.49,0.31,0.74,0.93,0.74h3.13c1.26,0,2.24,0.27,2.96,0.82c0.71,0.55,1.07,1.35,1.07,2.41v1.31c0,1.1-0.36,1.97-1.08,2.62
		c-0.72,0.65-1.7,0.97-2.94,0.97h-2.14c-0.99,0-1.63-0.26-1.92-0.77h-0.12v1.89c0,0.42-0.25,0.63-0.74,0.63h-2.07
		c-0.5,0-0.74-0.21-0.74-0.63v-5.15c0-0.42,0.25-0.63,0.74-0.63h2.07c0.5,0,0.74,0.21,0.74,0.63v0.11c0,0.77,0.46,1.15,1.39,1.15
		h2.26c0.35,0,0.59-0.07,0.73-0.21c0.13-0.14,0.2-0.36,0.2-0.67v-1.04C253.18,319.29,252.87,319.05,252.25,319.05z"/>
	<path class="st2" d="M252.87,302.12v1.97c0,0.42-0.23,0.63-0.68,0.63h-2.51c-0.45,0-0.68-0.21-0.68-0.63v-1.97
		c0-0.4,0.23-0.6,0.68-0.6h2.51C252.64,301.52,252.87,301.72,252.87,302.12z"/>
	<path class="st2" d="M266.33,315.4v0.11c0.68,0.24,1.02,0.73,1.02,1.48v1.81c0,1.35-0.39,2.42-1.16,3.22
		c-0.77,0.79-1.88,1.19-3.33,1.19h-3.25c-0.5,0-0.74-0.21-0.74-0.63v-1.56c0-0.44,0.25-0.66,0.74-0.66h2.04
		c0.97,0,1.59-0.19,1.86-0.58c0.19-0.29,0.28-0.72,0.28-1.29v-1.29c0-1.21-0.72-1.81-2.17-1.81h-0.8c-0.5,0-0.74-0.21-0.74-0.63
		v-1.75c0-0.38,0.24-0.58,0.71-0.58h8.85c0.25,0,0.37-0.13,0.37-0.38v-1.42c0-0.24-0.1-0.36-0.31-0.38h-11.76
		c-0.5,0-0.74-0.22-0.74-0.66v-1.56c0-0.42,0.25-0.63,0.74-0.63h17.74c0.5,0,0.74,0.21,0.74,0.63v1.56c0,0.44-0.25,0.66-0.74,0.66
		h-1.67c-0.25,0-0.37,0.13-0.37,0.38v13.2c0,0.42-0.25,0.63-0.74,0.63h-2.14c-0.5,0-0.74-0.21-0.74-0.63v-8.05
		c0-0.26-0.12-0.38-0.37-0.38H266.33z"/>
	<path class="st2" d="M277.91,319.49c-1.11,0-1.67-0.93-1.67-2.79c0-0.97,0.36-1.74,1.07-2.33c0.71-0.58,1.64-0.88,2.77-0.88h4.77
		c0.25,0,0.37-0.13,0.37-0.38v-2.47c0-0.24-0.1-0.36-0.31-0.38h-9.6c-0.5,0-0.74-0.22-0.74-0.66v-1.56c0-0.42,0.25-0.63,0.74-0.63
		h15.57c0.5,0,0.74,0.21,0.74,0.63v1.56c0,0.44-0.25,0.66-0.74,0.66h-1.67c-0.25,0-0.37,0.13-0.37,0.38v13.2
		c0,0.42-0.25,0.63-0.74,0.63h-2.14c-0.5,0-0.74-0.21-0.74-0.63v-7.09c0-0.26-0.12-0.38-0.37-0.38h-3.34c-0.39,0-0.69,0.02-0.9,0.05
		c-0.52,0.09-0.77,0.41-0.77,0.96l0.28,1.48c0,0.42-0.23,0.63-0.68,0.63H277.91z"/>
</g>
<g>
	<path class="st2" d="M135.67,276.16c0,0.36-0.16,0.53-0.48,0.53h-1.81c-0.2,0-0.36-0.11-0.48-0.33l-2.61-4.71l-0.66-0.97v-1.83
		c0-0.22,0.07-0.4,0.2-0.53c0.13-0.14,0.29-0.2,0.49-0.2H132c0.53,0,0.8-0.3,0.8-0.92v-3.36c0-0.24-0.09-0.36-0.28-0.36h-3.73
		c-0.37,0-0.55-0.21-0.55-0.64v-1.42c0-0.39,0.18-0.58,0.55-0.58h14.08c0.37,0,0.55,0.2,0.55,0.58v1.45c0,0.41-0.18,0.61-0.55,0.61
		h-1.24c-0.18,0-0.27,0.12-0.27,0.36v12.26c0,0.39-0.18,0.58-0.55,0.58h-1.58c-0.37,0-0.55-0.19-0.55-0.58v-4.99
		c0-0.24-0.09-0.36-0.27-0.36h-5.7l2.82,4.93C135.62,275.87,135.67,276.02,135.67,276.16z M135.14,268.12h3.27
		c0.18,0,0.27-0.12,0.27-0.36v-3.92c0-0.24-0.09-0.36-0.27-0.36h-2.66c-0.18,0-0.28,0.12-0.28,0.36v2.52c0,0.83-0.11,1.38-0.34,1.65
		V268.12z"/>
	<path class="st2" d="M147.07,260.85h1.24c0.37,0,0.55,0.2,0.55,0.58v1.45c0,0.41-0.18,0.61-0.55,0.61h-1.24
		c-0.18,0-0.28,0.12-0.28,0.36v12.26c0,0.39-0.18,0.58-0.55,0.58h-1.58c-0.37,0-0.55-0.19-0.55-0.58v-12.26
		c0-0.24-0.09-0.36-0.28-0.36h-1.24c-0.37,0-0.55-0.2-0.55-0.61v-1.45c0-0.39,0.18-0.58,0.55-0.58h1.24c0.18,0,0.28-0.12,0.28-0.36
		v-1.91c0-0.71-0.11-1.21-0.32-1.49c-0.21-0.28-0.6-0.42-1.17-0.42s-0.95,0.14-1.17,0.41c-0.21,0.27-0.32,0.76-0.32,1.47v0.13
		c0,0.41-0.17,0.61-0.5,0.61h-1.6c-0.38,0-0.57-0.2-0.57-0.61v-0.13c0-1.46,0.34-2.58,1.02-3.38c0.68-0.8,1.7-1.2,3.06-1.2
		s2.41,0.33,3.15,1s1.11,1.66,1.11,2.96v2.54C146.79,260.73,146.88,260.85,147.07,260.85z"/>
	<path class="st2" d="M148.03,260.85h12.18c0.37,0,0.55,0.2,0.55,0.61v1.45c0,0.39-0.18,0.58-0.55,0.58h-0.94
		c-0.2,0-0.3,0.11-0.3,0.33v2.16c0,1.36-0.34,2.39-1.02,3.1c-0.68,0.71-1.65,1.07-2.9,1.07h-0.75c-0.37,0-0.55-0.2-0.55-0.61v-1.4
		c0-0.39,0.18-0.58,0.55-0.58h0.37c0.58,0,1-0.11,1.27-0.34c0.27-0.23,0.4-0.64,0.4-1.23v-2.16c0-0.22-0.1-0.33-0.3-0.33h-3.57
		c-0.2,0-0.3,0.11-0.3,0.33v7.07c0,1.59,0.84,2.39,2.52,2.39h2.93c0.37,0,0.55,0.2,0.55,0.61v1.45c0,0.39-0.18,0.6-0.55,0.64h-3.5
		c-1.43,0-2.56-0.47-3.37-1.4c-0.81-0.93-1.21-2.12-1.21-3.56v-7.2c0-0.22-0.1-0.33-0.3-0.33h-1.21c-0.37,0-0.55-0.2-0.55-0.58
		v-1.45C147.48,261.05,147.66,260.85,148.03,260.85z"/>
	<path class="st2" d="M166.8,276.16c0,0.36-0.16,0.53-0.48,0.53h-1.81c-0.2,0-0.36-0.11-0.48-0.33l-2.61-4.71l-0.66-0.97v-1.83
		c0-0.22,0.07-0.4,0.2-0.53c0.13-0.14,0.29-0.2,0.49-0.2h1.69c0.53,0,0.8-0.3,0.8-0.92v-3.36c0-0.24-0.09-0.36-0.28-0.36h-3.73
		c-0.37,0-0.55-0.21-0.55-0.64v-1.42c0-0.39,0.18-0.58,0.55-0.58h14.08c0.37,0,0.55,0.2,0.55,0.58v1.45c0,0.41-0.18,0.61-0.55,0.61
		h-1.24c-0.18,0-0.27,0.12-0.27,0.36v12.26c0,0.39-0.18,0.58-0.55,0.58h-1.58c-0.37,0-0.55-0.19-0.55-0.58v-4.99
		c0-0.24-0.09-0.36-0.27-0.36h-5.7l2.82,4.93C166.76,275.87,166.8,276.02,166.8,276.16z M166.28,268.12h3.27
		c0.18,0,0.27-0.12,0.27-0.36v-3.92c0-0.24-0.09-0.36-0.27-0.36h-2.66c-0.18,0-0.28,0.12-0.28,0.36v2.52c0,0.83-0.11,1.38-0.34,1.65
		V268.12z"/>
	<path class="st2" d="M184.79,260.85h8.58c0.37,0,0.55,0.2,0.55,0.58v1.45c0,0.41-0.18,0.61-0.55,0.61h-1.24
		c-0.18,0-0.27,0.12-0.27,0.36v12.26c0,0.39-0.18,0.58-0.55,0.58h-1.58c-0.37,0-0.55-0.19-0.55-0.58v-12.26
		c0-0.24-0.09-0.36-0.27-0.36h-2.2c-0.18,0-0.27,0.12-0.27,0.36v12.26c0,0.39-0.18,0.58-0.55,0.58h-1.58
		c-0.37,0-0.55-0.19-0.55-0.58v-4.1c0-0.24-0.09-0.36-0.27-0.36h-1.79c-0.01,1.34-0.37,2.37-1.05,3.08
		c-0.69,0.71-1.66,1.07-2.93,1.07h-2.47c-0.37,0-0.55-0.2-0.55-0.61v-1.45c0-0.39,0.18-0.59,0.55-0.59h2.27
		c0.55,0,0.95-0.12,1.2-0.37s0.38-0.65,0.38-1.21v-0.56c0-0.56-0.12-0.96-0.37-1.2c-0.24-0.24-0.65-0.36-1.21-0.36h-1.03
		c-0.37,0-0.55-0.2-0.55-0.61v-1.4c0-0.42,0.17-0.64,0.53-0.64h1.05c0.55,0,0.95-0.12,1.2-0.37c0.25-0.25,0.38-0.65,0.38-1.21v-0.2
		c0-0.56-0.12-0.96-0.37-1.2c-0.24-0.24-0.65-0.36-1.21-0.36h-1.58c-0.37,0-0.55-0.2-0.55-0.61v-1.45c0-0.39,0.18-0.58,0.55-0.58
		h1.95c1.31,0,2.28,0.36,2.9,1.08s0.93,1.8,0.93,3.24v0.23c0,1.32-0.43,2.22-1.28,2.7v0.1c0.44,0.17,0.77,0.47,0.99,0.89h2.08
		c0.18,0,0.27-0.12,0.27-0.36v-6.71c0-0.34,0.09-0.62,0.27-0.84C184.22,260.96,184.47,260.85,184.79,260.85z"/>
	<path class="st2" d="M200.57,258.86v0.99c0,0.39,0.07,0.65,0.21,0.79c0.14,0.14,0.41,0.2,0.82,0.2h2.47c0.37,0,0.55,0.2,0.55,0.58
		v1.48c0,0.39-0.18,0.58-0.55,0.58h-1.46c-0.18,0-0.27,0.1-0.27,0.3v2.34c0,0.93-0.45,1.4-1.35,1.4h-3.32
		c-0.26,0-0.44,0.06-0.54,0.19c-0.1,0.13-0.15,0.34-0.15,0.62v0.1c0,0.46,0.23,0.69,0.69,0.69h2.31c0.93,0,1.66,0.25,2.19,0.76
		c0.53,0.51,0.79,1.26,0.79,2.24v1.22c0,1.02-0.27,1.83-0.8,2.43c-0.53,0.6-1.26,0.9-2.17,0.9h-1.58c-0.73,0-1.21-0.24-1.42-0.71
		h-0.09v1.75c0,0.39-0.18,0.58-0.55,0.58h-1.53c-0.37,0-0.55-0.2-0.55-0.58v-4.78c0-0.39,0.18-0.58,0.55-0.58h1.53
		c0.37,0,0.55,0.2,0.55,0.58v0.1c0,0.71,0.34,1.07,1.03,1.07h1.67c0.26,0,0.44-0.06,0.54-0.19c0.1-0.13,0.15-0.33,0.15-0.62v-0.97
		c0-0.46-0.23-0.69-0.69-0.69h-2.13c-2.06,0-3.09-1.08-3.09-3.26v-0.38c0-1.02,0.28-1.79,0.83-2.31c0.56-0.53,1.31-0.79,2.25-0.79
		h1.95c0.18,0,0.27-0.12,0.27-0.36v-0.76c0-0.2-0.09-0.3-0.27-0.3h-6.3c-0.37,0-0.55-0.2-0.55-0.58v-1.48
		c0-0.39,0.18-0.58,0.55-0.58h5.27v-0.1c-0.32-0.15-0.48-0.52-0.48-1.09v-0.89c0-1.27,0.36-2.29,1.09-3.04
		c0.72-0.75,1.66-1.13,2.8-1.13h1.4c0.37,0,0.55,0.2,0.55,0.61v1.42c0,0.41-0.18,0.61-0.55,0.61h-1.21
		C201.03,257.23,200.57,257.78,200.57,258.86z"/>
	<path class="st2" d="M214.85,260.85h8.58c0.37,0,0.55,0.2,0.55,0.58v1.45c0,0.41-0.18,0.61-0.55,0.61h-1.24
		c-0.18,0-0.27,0.12-0.27,0.36v12.26c0,0.39-0.18,0.58-0.55,0.58h-1.58c-0.37,0-0.55-0.19-0.55-0.58v-12.26
		c0-0.24-0.09-0.36-0.27-0.36h-2.2c-0.18,0-0.27,0.12-0.27,0.36v12.26c0,0.39-0.18,0.58-0.55,0.58h-1.58
		c-0.37,0-0.55-0.19-0.55-0.58v-4.1c0-0.24-0.09-0.36-0.27-0.36h-1.79c-0.01,1.34-0.37,2.37-1.05,3.08
		c-0.69,0.71-1.66,1.07-2.93,1.07h-2.47c-0.37,0-0.55-0.2-0.55-0.61v-1.45c0-0.39,0.18-0.59,0.55-0.59h2.27
		c0.55,0,0.95-0.12,1.2-0.37s0.38-0.65,0.38-1.21v-0.56c0-0.56-0.12-0.96-0.37-1.2c-0.24-0.24-0.65-0.36-1.21-0.36h-1.03
		c-0.37,0-0.55-0.2-0.55-0.61v-1.4c0-0.42,0.17-0.64,0.53-0.64h1.05c0.55,0,0.95-0.12,1.2-0.37c0.25-0.25,0.38-0.65,0.38-1.21v-0.2
		c0-0.56-0.12-0.96-0.37-1.2c-0.24-0.24-0.65-0.36-1.21-0.36h-1.58c-0.37,0-0.55-0.2-0.55-0.61v-1.45c0-0.39,0.18-0.58,0.55-0.58
		h1.95c1.31,0,2.28,0.36,2.9,1.08s0.93,1.8,0.93,3.24v0.23c0,1.32-0.43,2.22-1.28,2.7v0.1c0.44,0.17,0.77,0.47,0.99,0.89h2.08
		c0.18,0,0.27-0.12,0.27-0.36v-6.71c0-0.34,0.09-0.62,0.27-0.84C214.28,260.96,214.53,260.85,214.85,260.85z"/>
	<path class="st2" d="M227.17,267.2v-3.36c0-0.22-0.08-0.34-0.23-0.36h-3.78c-0.37,0-0.55-0.2-0.55-0.61v-1.45
		c0-0.39,0.18-0.58,0.55-0.58h8.04c0.37,0,0.55,0.2,0.55,0.58v1.45c0,0.41-0.18,0.61-0.55,0.61h-1.08c-0.18,0-0.28,0.12-0.28,0.36
		v3.54c0,1-0.24,1.81-0.72,2.42s-1.13,0.92-1.96,0.92h-0.11l2.84,4.99c0.09,0.14,0.14,0.28,0.14,0.43c0,0.37-0.16,0.56-0.48,0.56
		h-1.81c-0.2,0-0.36-0.11-0.48-0.33l-2.61-4.71l-0.66-0.97v-1.83c0-0.22,0.07-0.4,0.2-0.53c0.13-0.14,0.29-0.2,0.49-0.2h1.69
		C226.9,268.12,227.17,267.82,227.17,267.2z"/>
</g>
<g>
	<path class="st2" d="M71.52,331.86l-0.67,3.42h-1.09c-0.01-0.7-0.04-1.19-0.11-1.47c-0.07-0.28-0.18-0.49-0.33-0.63
		s-0.36-0.21-0.63-0.21h-0.76l-1.83,9.24c-0.03,0.17-0.06,0.3-0.07,0.39c-0.01,0.09-0.02,0.19-0.03,0.3
		c-0.01,0.11-0.01,0.25-0.01,0.41c0,0.29,0.07,0.5,0.2,0.61c0.13,0.12,0.34,0.19,0.62,0.21l-0.12,0.62h-4.52l0.12-0.62
		c0.25-0.04,0.45-0.12,0.6-0.25s0.27-0.31,0.37-0.56c0.1-0.25,0.2-0.62,0.3-1.12l1.83-9.24h-0.68c-0.22,0-0.4,0.02-0.54,0.07
		c-0.14,0.04-0.26,0.11-0.36,0.18c-0.1,0.08-0.21,0.19-0.33,0.33s-0.25,0.33-0.4,0.58c-0.14,0.24-0.3,0.56-0.46,0.96h-1.11
		l0.64-3.22H71.52z"/>
	<path class="st2" d="M74.67,337l0.11,0.04c0.45-0.62,0.91-1.07,1.38-1.37s0.99-0.44,1.57-0.44s1.04,0.18,1.37,0.54
		c0.33,0.36,0.5,0.86,0.5,1.5c0,0.41-0.06,0.9-0.17,1.46l-0.7,3.5c-0.06,0.29-0.1,0.51-0.12,0.67s-0.03,0.29-0.03,0.41
		c0,0.28,0.06,0.48,0.19,0.6c0.13,0.11,0.35,0.19,0.66,0.23l-0.1,0.62h-3.53l1.06-5.14c0.15-0.73,0.25-1.23,0.28-1.51
		s0.05-0.5,0.05-0.65c0-0.28-0.05-0.49-0.16-0.63c-0.11-0.14-0.26-0.21-0.47-0.21c-0.18,0-0.38,0.08-0.59,0.23
		c-0.22,0.15-0.46,0.39-0.72,0.71s-0.48,0.66-0.64,1.02s-0.29,0.81-0.38,1.34l-0.94,4.85h-2.44l2.15-10.68
		c0.12-0.62,0.19-1.07,0.19-1.35c0-0.14-0.01-0.25-0.04-0.33c-0.03-0.08-0.06-0.14-0.11-0.19c-0.05-0.05-0.12-0.09-0.2-0.12
		s-0.25-0.06-0.5-0.1l0.14-0.61l2.54-0.15h0.96L74.67,337z"/>
	<path class="st2" d="M88.26,342.79c-0.57,0.72-1.19,1.25-1.85,1.6c-0.66,0.35-1.38,0.52-2.15,0.52c-0.66,0-1.23-0.13-1.69-0.39
		c-0.46-0.26-0.82-0.64-1.05-1.15c-0.24-0.51-0.35-1.11-0.35-1.82c0-0.33,0.04-0.75,0.12-1.26c0.11-0.69,0.27-1.31,0.49-1.85
		c0.28-0.67,0.64-1.24,1.09-1.72s0.97-0.85,1.58-1.11c0.6-0.26,1.27-0.39,1.99-0.39c0.85,0,1.5,0.17,1.94,0.51
		c0.44,0.34,0.66,0.87,0.66,1.57c0,0.48-0.09,0.9-0.26,1.27c-0.17,0.37-0.46,0.7-0.86,0.99c-0.4,0.3-0.97,0.54-1.71,0.72
		s-1.62,0.29-2.66,0.31c-0.07,0.37-0.11,0.76-0.11,1.15c0,0.23,0.02,0.46,0.06,0.67c0.04,0.21,0.11,0.4,0.21,0.56
		c0.1,0.16,0.24,0.29,0.41,0.39c0.17,0.1,0.39,0.15,0.66,0.15c0.5,0,0.95-0.11,1.35-0.34s0.88-0.62,1.42-1.2L88.26,342.79z
		 M83.75,339.62c1.04-0.03,1.84-0.25,2.39-0.67s0.83-1,0.83-1.75c0-0.32-0.07-0.57-0.2-0.73c-0.13-0.17-0.32-0.25-0.56-0.25
		c-0.53,0-1,0.29-1.42,0.87C84.37,337.66,84.03,338.51,83.75,339.62z"/>
	<path class="st2" d="M97.37,344.76h-4.28l0.12-0.62c0.24-0.08,0.42-0.18,0.55-0.31c0.13-0.13,0.24-0.32,0.33-0.56
		c0.09-0.24,0.18-0.59,0.27-1.05l1.55-7.8c0.07-0.37,0.11-0.74,0.11-1.11c0-0.26-0.06-0.46-0.17-0.58c-0.11-0.12-0.29-0.2-0.54-0.24
		l0.12-0.62h4.28l-0.12,0.62c-0.24,0.08-0.42,0.18-0.55,0.31c-0.13,0.13-0.24,0.32-0.33,0.56c-0.09,0.24-0.18,0.59-0.27,1.05
		l-1.55,7.8c-0.03,0.16-0.06,0.29-0.07,0.39s-0.02,0.2-0.03,0.31c-0.01,0.11-0.01,0.25-0.01,0.41c0,0.26,0.06,0.46,0.17,0.58
		c0.11,0.12,0.29,0.2,0.54,0.24L97.37,344.76z"/>
	<path class="st2" d="M108.01,344.76h-3.53l1.06-5.14c0.15-0.73,0.25-1.23,0.28-1.51s0.05-0.5,0.05-0.65c0-0.28-0.05-0.49-0.16-0.63
		s-0.26-0.21-0.47-0.21c-0.18,0-0.38,0.08-0.6,0.23s-0.46,0.39-0.72,0.71s-0.48,0.66-0.64,1.02c-0.16,0.36-0.29,0.81-0.38,1.34
		l-0.94,4.85h-2.44l1.33-6.67c0.03-0.15,0.07-0.37,0.12-0.65c0.05-0.28,0.07-0.51,0.07-0.7c0-0.26-0.07-0.45-0.2-0.54
		c-0.13-0.1-0.34-0.16-0.62-0.18l0.13-0.62l2.34-0.1h0.89l-0.48,2.04l0.1,0.04c0.39-0.54,0.75-0.96,1.09-1.26
		c0.33-0.31,0.67-0.53,1-0.66s0.7-0.2,1.1-0.2c0.58,0,1.04,0.18,1.38,0.54c0.33,0.36,0.5,0.86,0.5,1.5c0,0.41-0.06,0.9-0.17,1.46
		l-0.7,3.5c-0.06,0.29-0.09,0.51-0.11,0.67c-0.02,0.16-0.03,0.29-0.03,0.41c0,0.28,0.06,0.48,0.19,0.6
		c0.13,0.11,0.35,0.19,0.66,0.23L108.01,344.76z"/>
	<path class="st2" d="M118.2,344.76h-3.53l1.06-5.14c0.15-0.73,0.25-1.23,0.28-1.51s0.05-0.5,0.05-0.65c0-0.28-0.05-0.49-0.16-0.63
		s-0.26-0.21-0.47-0.21c-0.18,0-0.38,0.08-0.6,0.23s-0.46,0.39-0.72,0.71s-0.48,0.66-0.64,1.02c-0.16,0.36-0.29,0.81-0.38,1.34
		l-0.94,4.85h-2.44l1.33-6.67c0.03-0.15,0.07-0.37,0.12-0.65c0.05-0.28,0.07-0.51,0.07-0.7c0-0.26-0.07-0.45-0.2-0.54
		c-0.13-0.1-0.34-0.16-0.62-0.18l0.13-0.62l2.34-0.1h0.89l-0.48,2.04l0.1,0.04c0.39-0.54,0.75-0.96,1.09-1.26
		c0.33-0.31,0.67-0.53,1-0.66s0.7-0.2,1.1-0.2c0.58,0,1.04,0.18,1.38,0.54c0.33,0.36,0.5,0.86,0.5,1.5c0,0.41-0.06,0.9-0.17,1.46
		l-0.7,3.5c-0.06,0.29-0.09,0.51-0.11,0.67c-0.02,0.16-0.03,0.29-0.03,0.41c0,0.28,0.06,0.48,0.19,0.6
		c0.13,0.11,0.35,0.19,0.66,0.23L118.2,344.76z"/>
	<path class="st2" d="M123.2,344.91c-0.62,0-1.17-0.12-1.65-0.37c-0.47-0.25-0.85-0.63-1.11-1.13c-0.27-0.51-0.4-1.13-0.4-1.86
		c0-0.28,0.02-0.59,0.05-0.93c0.05-0.43,0.12-0.87,0.24-1.31c0.13-0.52,0.29-0.98,0.49-1.38c0.22-0.45,0.46-0.85,0.75-1.18
		c0.28-0.33,0.59-0.6,0.92-0.82s0.69-0.38,1.08-0.5c0.46-0.13,0.95-0.2,1.46-0.2c0.7,0,1.29,0.14,1.77,0.43
		c0.48,0.29,0.83,0.69,1.06,1.2c0.23,0.51,0.34,1.1,0.34,1.78c0,0.83-0.12,1.67-0.37,2.5c-0.25,0.84-0.59,1.54-1.03,2.11
		c-0.44,0.57-0.96,0.99-1.56,1.26C124.64,344.77,123.96,344.91,123.2,344.91z M122.32,342.16c0,0.59,0.09,1.03,0.26,1.33
		c0.17,0.29,0.45,0.44,0.82,0.44c0.21,0,0.41-0.05,0.6-0.15c0.19-0.1,0.38-0.26,0.56-0.5s0.35-0.54,0.5-0.9s0.29-0.81,0.42-1.34
		c0.13-0.53,0.24-1.05,0.31-1.56c0.07-0.51,0.11-0.99,0.11-1.43c0-0.63-0.09-1.09-0.26-1.39s-0.44-0.44-0.8-0.44
		c-0.48,0-0.89,0.26-1.24,0.77s-0.65,1.31-0.9,2.38C122.45,340.44,122.32,341.37,122.32,342.16z"/>
	<path class="st2" d="M137.3,335.38l0.3,0.62c-0.71,2.1-2.37,5.07-4.95,8.89H131l-0.79-7.2c-0.06-0.5-0.12-0.86-0.19-1.07
		c-0.07-0.21-0.16-0.36-0.27-0.45c-0.11-0.09-0.27-0.15-0.48-0.17l0.13-0.62h2.99l0.59,7.06c0.86-1.35,1.49-2.49,1.89-3.41
		c0.41-0.92,0.61-1.68,0.61-2.28c0-0.24-0.05-0.42-0.15-0.54c-0.1-0.12-0.28-0.19-0.54-0.2l0.12-0.62H137.3z"/>
	<path class="st2" d="M144.96,335.91l0.77-0.68l0.95,0.15l-1.31,6.59c-0.07,0.33-0.12,0.6-0.15,0.8c-0.03,0.2-0.05,0.37-0.05,0.51
		c0,0.28,0.06,0.49,0.19,0.61s0.35,0.21,0.66,0.24l-0.09,0.62h-3.27l0.46-1.94l-0.11-0.04c-0.39,0.55-0.74,0.98-1.08,1.29
		s-0.66,0.52-0.98,0.65c-0.32,0.13-0.69,0.19-1.11,0.19c-0.4,0-0.75-0.1-1.05-0.31c-0.3-0.21-0.54-0.54-0.71-0.99
		s-0.26-1.02-0.26-1.71c0-0.66,0.07-1.33,0.21-2s0.34-1.3,0.62-1.89c0.27-0.58,0.62-1.08,1.03-1.5c0.41-0.42,0.88-0.73,1.41-0.95
		c0.52-0.22,1.1-0.33,1.71-0.33C143.65,335.23,144.37,335.46,144.96,335.91z M143.68,338.88c0.04-0.2,0.07-0.43,0.1-0.68
		c0.03-0.25,0.04-0.49,0.04-0.72c0-0.42-0.07-0.73-0.21-0.95c-0.14-0.21-0.37-0.32-0.7-0.32c-0.53,0-1,0.29-1.4,0.88
		s-0.74,1.38-0.99,2.38c-0.25,1-0.37,1.89-0.37,2.67c0,0.46,0.06,0.8,0.18,1.03s0.31,0.34,0.57,0.34c0.38,0,0.76-0.2,1.14-0.61
		s0.7-0.88,0.94-1.43c0.24-0.55,0.45-1.3,0.64-2.25L143.68,338.88z"/>
	<path class="st2" d="M153.36,343.04c-0.4,0.49-0.76,0.86-1.08,1.12c-0.32,0.26-0.65,0.45-1,0.57c-0.35,0.12-0.75,0.18-1.2,0.18
		c-0.46,0-0.84-0.09-1.14-0.28c-0.3-0.19-0.52-0.43-0.66-0.75c-0.14-0.31-0.2-0.66-0.2-1.05c0-0.3,0.02-0.58,0.06-0.85
		c0.04-0.27,0.12-0.71,0.25-1.32l0.88-4.1h-1.15l0.12-0.62c0.35-0.03,0.63-0.09,0.82-0.19c0.2-0.1,0.37-0.26,0.51-0.46
		c0.14-0.2,0.27-0.48,0.4-0.83c0.12-0.35,0.26-0.83,0.42-1.44h2.04l-0.49,2.36h2.07l-0.23,1.18h-2.08l-0.94,4.32
		c-0.04,0.19-0.08,0.38-0.11,0.56s-0.06,0.36-0.08,0.52s-0.04,0.31-0.05,0.42s-0.01,0.21-0.01,0.3c0,0.3,0.05,0.51,0.14,0.65
		s0.24,0.2,0.43,0.2c0.25,0,0.52-0.1,0.79-0.3c0.27-0.2,0.56-0.51,0.87-0.94L153.36,343.04z"/>
	<path class="st2" d="M156.93,342.23c-0.06,0.32-0.1,0.55-0.12,0.7s-0.03,0.28-0.03,0.38c0,0.27,0.06,0.47,0.19,0.59
		c0.13,0.12,0.35,0.2,0.66,0.24l-0.09,0.62h-3.54l1.33-6.6c0.07-0.38,0.12-0.67,0.15-0.88s0.04-0.39,0.04-0.53
		c0-0.25-0.05-0.42-0.16-0.52c-0.11-0.1-0.33-0.17-0.66-0.21l0.13-0.62l2.49-0.1h0.97L156.93,342.23z M158.9,331.61l-0.44,2.32h-2.2
		l0.47-2.32H158.9z"/>
	<path class="st2" d="M162.55,344.91c-0.62,0-1.17-0.12-1.65-0.37c-0.47-0.25-0.85-0.63-1.11-1.13c-0.27-0.51-0.4-1.13-0.4-1.86
		c0-0.28,0.02-0.59,0.05-0.93c0.05-0.43,0.12-0.87,0.24-1.31c0.13-0.52,0.29-0.98,0.49-1.38c0.22-0.45,0.46-0.85,0.75-1.18
		c0.28-0.33,0.59-0.6,0.92-0.82s0.69-0.38,1.08-0.5c0.46-0.13,0.95-0.2,1.46-0.2c0.7,0,1.29,0.14,1.77,0.43
		c0.48,0.29,0.83,0.69,1.06,1.2c0.23,0.51,0.34,1.1,0.34,1.78c0,0.83-0.12,1.67-0.37,2.5c-0.25,0.84-0.59,1.54-1.03,2.11
		c-0.44,0.57-0.96,0.99-1.56,1.26C163.99,344.77,163.31,344.91,162.55,344.91z M161.67,342.16c0,0.59,0.09,1.03,0.26,1.33
		c0.17,0.29,0.45,0.44,0.82,0.44c0.21,0,0.41-0.05,0.6-0.15c0.19-0.1,0.38-0.26,0.56-0.5s0.35-0.54,0.5-0.9s0.29-0.81,0.42-1.34
		c0.13-0.53,0.24-1.05,0.31-1.56c0.07-0.51,0.11-0.99,0.11-1.43c0-0.63-0.09-1.09-0.26-1.39s-0.44-0.44-0.8-0.44
		c-0.48,0-0.89,0.26-1.24,0.77s-0.65,1.31-0.9,2.38C161.8,340.44,161.67,341.37,161.67,342.16z"/>
	<path class="st2" d="M177.16,344.76h-3.53l1.06-5.14c0.15-0.73,0.25-1.23,0.28-1.51s0.05-0.5,0.05-0.65c0-0.28-0.05-0.49-0.16-0.63
		s-0.26-0.21-0.47-0.21c-0.18,0-0.38,0.08-0.6,0.23s-0.46,0.39-0.72,0.71s-0.48,0.66-0.64,1.02c-0.16,0.36-0.29,0.81-0.38,1.34
		l-0.94,4.85h-2.44l1.33-6.67c0.03-0.15,0.07-0.37,0.12-0.65c0.05-0.28,0.07-0.51,0.07-0.7c0-0.26-0.07-0.45-0.2-0.54
		c-0.13-0.1-0.34-0.16-0.62-0.18l0.13-0.62l2.34-0.1h0.89l-0.48,2.04l0.1,0.04c0.39-0.54,0.75-0.96,1.09-1.26
		c0.33-0.31,0.67-0.53,1-0.66s0.7-0.2,1.1-0.2c0.58,0,1.04,0.18,1.38,0.54c0.33,0.36,0.5,0.86,0.5,1.5c0,0.41-0.06,0.9-0.17,1.46
		l-0.7,3.5c-0.06,0.29-0.09,0.51-0.11,0.67c-0.02,0.16-0.03,0.29-0.03,0.41c0,0.28,0.06,0.48,0.19,0.6
		c0.13,0.11,0.35,0.19,0.66,0.23L177.16,344.76z"/>
	<path class="st2" d="M192.83,331.86l-0.6,3.04h-1.09c-0.03-0.6-0.08-1.02-0.15-1.26c-0.07-0.24-0.19-0.41-0.34-0.52
		c-0.15-0.11-0.37-0.16-0.65-0.16h-2.14l-0.9,4.54h1.18c0.23,0,0.42-0.04,0.57-0.12c0.16-0.08,0.3-0.22,0.43-0.41
		c0.13-0.19,0.26-0.46,0.4-0.8h0.94l-0.82,3.84h-0.88c0-0.37-0.02-0.65-0.06-0.84c-0.04-0.2-0.11-0.34-0.22-0.43
		c-0.11-0.09-0.29-0.13-0.55-0.13h-1.21l-1,5.05h1.91c0.25,0,0.44-0.02,0.58-0.06c0.14-0.04,0.27-0.1,0.38-0.18s0.25-0.21,0.4-0.39
		c0.15-0.18,0.3-0.41,0.46-0.68c0.15-0.27,0.3-0.6,0.46-0.99h1.16l-0.78,3.4h-8.09l0.12-0.62c0.24-0.08,0.42-0.18,0.55-0.31
		c0.13-0.13,0.24-0.32,0.33-0.56c0.09-0.24,0.18-0.59,0.27-1.05l1.55-7.8c0.07-0.37,0.11-0.74,0.11-1.11c0-0.26-0.06-0.46-0.17-0.58
		c-0.11-0.12-0.29-0.2-0.54-0.24l0.12-0.62H192.83z"/>
	<path class="st2" d="M200.98,344.76h-3.53l1.06-5.14c0.15-0.73,0.25-1.23,0.28-1.51s0.05-0.5,0.05-0.65c0-0.28-0.05-0.49-0.16-0.63
		s-0.26-0.21-0.47-0.21c-0.18,0-0.38,0.08-0.6,0.23s-0.46,0.39-0.72,0.71s-0.48,0.66-0.64,1.02c-0.16,0.36-0.29,0.81-0.38,1.34
		l-0.94,4.85h-2.44l1.33-6.67c0.03-0.15,0.07-0.37,0.12-0.65c0.05-0.28,0.07-0.51,0.07-0.7c0-0.26-0.07-0.45-0.2-0.54
		c-0.13-0.1-0.34-0.16-0.62-0.18l0.13-0.62l2.34-0.1h0.89l-0.48,2.04l0.1,0.04c0.39-0.54,0.75-0.96,1.09-1.26
		c0.33-0.31,0.67-0.53,1-0.66s0.7-0.2,1.1-0.2c0.58,0,1.04,0.18,1.38,0.54c0.33,0.36,0.5,0.86,0.5,1.5c0,0.41-0.06,0.9-0.17,1.46
		l-0.7,3.5c-0.06,0.29-0.09,0.51-0.11,0.67c-0.02,0.16-0.03,0.29-0.03,0.41c0,0.28,0.06,0.48,0.19,0.6
		c0.13,0.11,0.35,0.19,0.66,0.23L200.98,344.76z"/>
	<path class="st2" d="M203.45,345.54c-0.15,0.21-0.26,0.4-0.32,0.59s-0.09,0.38-0.09,0.6c0,0.43,0.13,0.75,0.4,0.96
		c0.27,0.21,0.67,0.32,1.21,0.32c0.4,0,0.75-0.07,1.07-0.22c0.32-0.15,0.61-0.38,0.88-0.71c0.27-0.33,0.51-0.82,0.75-1.47
		c0.23-0.65,0.45-1.53,0.66-2.63l-0.11-0.08c-0.37,0.52-0.71,0.92-1.02,1.21c-0.32,0.29-0.63,0.5-0.96,0.63
		c-0.32,0.13-0.69,0.19-1.11,0.19c-0.39,0-0.74-0.1-1.04-0.31c-0.3-0.21-0.54-0.54-0.72-0.99s-0.27-1.02-0.27-1.71
		c0-0.86,0.11-1.72,0.34-2.56c0.23-0.84,0.55-1.56,0.97-2.17c0.42-0.61,0.94-1.08,1.56-1.42c0.62-0.34,1.33-0.51,2.13-0.51
		c0.4,0,0.77,0.05,1.11,0.15c0.34,0.1,0.68,0.28,1.03,0.53l0.77-0.68l0.95,0.15l-0.73,3.7c-0.12,0.6-0.23,1.18-0.32,1.74l-0.54,2.91
		c-0.15,0.79-0.3,1.43-0.45,1.94c-0.14,0.44-0.29,0.82-0.45,1.12c-0.15,0.29-0.32,0.55-0.52,0.77c-0.19,0.23-0.4,0.42-0.62,0.58
		c-0.23,0.17-0.49,0.31-0.77,0.42c-0.32,0.13-0.68,0.23-1.08,0.3c-0.42,0.08-0.91,0.11-1.45,0.11c-0.79,0-1.46-0.08-2-0.24
		c-0.54-0.16-0.94-0.4-1.21-0.71c-0.26-0.32-0.4-0.71-0.4-1.19c0-0.39,0.12-0.76,0.37-1.11c0.25-0.35,0.62-0.68,1.11-0.99
		L203.45,345.54z M208.63,338.87c0.09-0.47,0.14-0.92,0.14-1.36c0-0.43-0.07-0.76-0.21-0.97c-0.14-0.21-0.37-0.32-0.7-0.32
		c-0.51,0-0.97,0.28-1.38,0.85c-0.41,0.57-0.74,1.35-1,2.36c-0.26,1.01-0.39,1.92-0.39,2.72c0,0.46,0.06,0.8,0.18,1.03
		s0.31,0.34,0.57,0.34c0.24,0,0.49-0.09,0.74-0.26c0.25-0.17,0.51-0.44,0.79-0.8c0.28-0.36,0.51-0.8,0.69-1.31
		c0.19-0.51,0.35-1.15,0.5-1.93L208.63,338.87z"/>
	<path class="st2" d="M215.46,342.23c-0.06,0.32-0.1,0.55-0.12,0.7s-0.03,0.28-0.03,0.38c0,0.27,0.06,0.47,0.19,0.59
		c0.13,0.12,0.35,0.2,0.66,0.24l-0.09,0.62h-3.54l1.33-6.6c0.07-0.38,0.12-0.67,0.15-0.88s0.04-0.39,0.04-0.53
		c0-0.25-0.05-0.42-0.16-0.52c-0.11-0.1-0.33-0.17-0.66-0.21l0.13-0.62l2.49-0.1h0.97L215.46,342.23z M217.43,331.61l-0.44,2.32
		h-2.2l0.47-2.32H217.43z"/>
	<path class="st2" d="M226.28,344.76h-3.53l1.06-5.14c0.15-0.73,0.25-1.23,0.28-1.51s0.05-0.5,0.05-0.65c0-0.28-0.05-0.49-0.16-0.63
		s-0.26-0.21-0.47-0.21c-0.18,0-0.38,0.08-0.6,0.23s-0.46,0.39-0.72,0.71s-0.48,0.66-0.64,1.02c-0.16,0.36-0.29,0.81-0.38,1.34
		l-0.94,4.85h-2.44l1.33-6.67c0.03-0.15,0.07-0.37,0.12-0.65c0.05-0.28,0.07-0.51,0.07-0.7c0-0.26-0.07-0.45-0.2-0.54
		c-0.13-0.1-0.34-0.16-0.62-0.18l0.13-0.62l2.34-0.1h0.89l-0.48,2.04l0.1,0.04c0.39-0.54,0.75-0.96,1.09-1.26
		c0.33-0.31,0.67-0.53,1-0.66s0.7-0.2,1.1-0.2c0.58,0,1.04,0.18,1.38,0.54c0.33,0.36,0.5,0.86,0.5,1.5c0,0.41-0.06,0.9-0.17,1.46
		l-0.7,3.5c-0.06,0.29-0.09,0.51-0.11,0.67c-0.02,0.16-0.03,0.29-0.03,0.41c0,0.28,0.06,0.48,0.19,0.6
		c0.13,0.11,0.35,0.19,0.66,0.23L226.28,344.76z"/>
	<path class="st2" d="M235.2,342.79c-0.57,0.72-1.19,1.25-1.85,1.6c-0.66,0.35-1.38,0.52-2.15,0.52c-0.66,0-1.23-0.13-1.69-0.39
		c-0.46-0.26-0.82-0.64-1.05-1.15c-0.24-0.51-0.35-1.11-0.35-1.82c0-0.33,0.04-0.75,0.12-1.26c0.11-0.69,0.27-1.31,0.49-1.85
		c0.28-0.67,0.64-1.24,1.09-1.72s0.97-0.85,1.58-1.11c0.6-0.26,1.27-0.39,1.99-0.39c0.85,0,1.5,0.17,1.94,0.51
		c0.44,0.34,0.66,0.87,0.66,1.57c0,0.48-0.09,0.9-0.26,1.27c-0.17,0.37-0.46,0.7-0.86,0.99c-0.4,0.3-0.97,0.54-1.71,0.72
		s-1.62,0.29-2.66,0.31c-0.07,0.37-0.11,0.76-0.11,1.15c0,0.23,0.02,0.46,0.06,0.67c0.04,0.21,0.11,0.4,0.21,0.56
		c0.1,0.16,0.24,0.29,0.41,0.39c0.17,0.1,0.39,0.15,0.66,0.15c0.5,0,0.95-0.11,1.35-0.34s0.88-0.62,1.42-1.2L235.2,342.79z
		 M230.7,339.62c1.04-0.03,1.84-0.25,2.39-0.67s0.83-1,0.83-1.75c0-0.32-0.07-0.57-0.2-0.73c-0.13-0.17-0.32-0.25-0.56-0.25
		c-0.53,0-1,0.29-1.42,0.87C231.31,337.66,230.97,338.51,230.7,339.62z"/>
	<path class="st2" d="M243.79,344.91c-0.62,0-1.17-0.12-1.65-0.37c-0.47-0.25-0.85-0.63-1.11-1.13c-0.27-0.51-0.4-1.13-0.4-1.86
		c0-0.28,0.02-0.59,0.05-0.93c0.05-0.43,0.12-0.87,0.24-1.31c0.13-0.52,0.29-0.98,0.49-1.38c0.22-0.45,0.46-0.85,0.75-1.18
		c0.28-0.33,0.59-0.6,0.92-0.82s0.69-0.38,1.08-0.5c0.46-0.13,0.95-0.2,1.46-0.2c0.7,0,1.29,0.14,1.77,0.43
		c0.48,0.29,0.83,0.69,1.06,1.2c0.23,0.51,0.34,1.1,0.34,1.78c0,0.83-0.12,1.67-0.37,2.5c-0.25,0.84-0.59,1.54-1.03,2.11
		c-0.44,0.57-0.96,0.99-1.56,1.26C245.24,344.77,244.55,344.91,243.79,344.91z M242.92,342.16c0,0.59,0.09,1.03,0.26,1.33
		c0.17,0.29,0.45,0.44,0.82,0.44c0.21,0,0.41-0.05,0.6-0.15c0.19-0.1,0.38-0.26,0.56-0.5s0.35-0.54,0.5-0.9s0.29-0.81,0.42-1.34
		c0.13-0.53,0.24-1.05,0.31-1.56c0.07-0.51,0.11-0.99,0.11-1.43c0-0.63-0.09-1.09-0.26-1.39s-0.44-0.44-0.8-0.44
		c-0.48,0-0.89,0.26-1.24,0.77s-0.65,1.31-0.9,2.38C243.04,340.44,242.92,341.37,242.92,342.16z"/>
	<path class="st2" d="M250.55,336.56l0.12-0.62c0.23-0.03,0.41-0.06,0.52-0.09c0.12-0.04,0.22-0.09,0.3-0.17
		c0.08-0.07,0.17-0.19,0.24-0.35c0.07-0.16,0.15-0.42,0.24-0.77c0.14-0.6,0.32-1.09,0.54-1.49c0.22-0.39,0.5-0.74,0.84-1.03
		s0.75-0.51,1.21-0.64c0.46-0.14,0.97-0.2,1.53-0.2c0.22,0,0.46,0.01,0.72,0.03c0.26,0.02,0.55,0.07,0.88,0.14l-0.38,1.89h-1.1
		c-0.02-0.39-0.08-0.67-0.17-0.83c-0.09-0.16-0.23-0.25-0.43-0.25c-0.13,0-0.25,0.03-0.35,0.08c-0.1,0.06-0.2,0.16-0.3,0.3
		c-0.1,0.14-0.19,0.35-0.28,0.63c-0.09,0.27-0.18,0.66-0.28,1.16l-0.21,1.04h1.62l-0.23,1.18h-1.62l-1.54,7.9
		c-0.2,1.01-0.48,1.85-0.84,2.51c-0.36,0.66-0.83,1.16-1.4,1.5c-0.57,0.34-1.27,0.51-2.1,0.51c-0.27,0-0.54-0.04-0.81-0.12
		l0.23-1.03c0.16,0.05,0.35,0.08,0.56,0.08c0.26,0,0.46-0.04,0.62-0.12c0.16-0.08,0.31-0.21,0.44-0.41
		c0.13-0.19,0.25-0.47,0.37-0.85c0.11-0.37,0.24-0.89,0.37-1.57l1.7-8.4H250.55z"/>
	<path class="st2" d="M263.14,344.76h-4.28l0.12-0.62c0.24-0.08,0.42-0.18,0.55-0.31c0.13-0.13,0.24-0.32,0.33-0.56
		c0.09-0.24,0.18-0.59,0.27-1.05l1.55-7.8c0.07-0.37,0.11-0.74,0.11-1.11c0-0.26-0.06-0.46-0.17-0.58c-0.11-0.12-0.29-0.2-0.54-0.24
		l0.12-0.62h4.28l-0.12,0.62c-0.24,0.08-0.42,0.18-0.55,0.31c-0.13,0.13-0.24,0.32-0.33,0.56c-0.09,0.24-0.18,0.59-0.27,1.05
		l-1.55,7.8c-0.03,0.16-0.06,0.29-0.07,0.39s-0.02,0.2-0.03,0.31c-0.01,0.11-0.01,0.25-0.01,0.41c0,0.26,0.06,0.46,0.17,0.58
		c0.11,0.12,0.29,0.2,0.54,0.24L263.14,344.76z"/>
	<path class="st2" d="M273.77,344.76h-3.53l1.06-5.14c0.15-0.73,0.25-1.23,0.28-1.51s0.05-0.5,0.05-0.65c0-0.28-0.05-0.49-0.16-0.63
		s-0.26-0.21-0.47-0.21c-0.18,0-0.38,0.08-0.6,0.23s-0.46,0.39-0.72,0.71s-0.48,0.66-0.64,1.02c-0.16,0.36-0.29,0.81-0.38,1.34
		l-0.94,4.85h-2.44l1.33-6.67c0.03-0.15,0.07-0.37,0.12-0.65c0.05-0.28,0.07-0.51,0.07-0.7c0-0.26-0.07-0.45-0.2-0.54
		c-0.13-0.1-0.34-0.16-0.62-0.18l0.13-0.62l2.34-0.1h0.89l-0.48,2.04l0.1,0.04c0.39-0.54,0.75-0.96,1.09-1.26
		c0.33-0.31,0.67-0.53,1-0.66s0.7-0.2,1.1-0.2c0.58,0,1.04,0.18,1.38,0.54c0.33,0.36,0.5,0.86,0.5,1.5c0,0.41-0.06,0.9-0.17,1.46
		l-0.7,3.5c-0.06,0.29-0.09,0.51-0.11,0.67c-0.02,0.16-0.03,0.29-0.03,0.41c0,0.28,0.06,0.48,0.19,0.6
		c0.13,0.11,0.35,0.19,0.66,0.23L273.77,344.76z"/>
	<path class="st2" d="M282.29,334.08c0.03-0.16,0.07-0.38,0.12-0.68c0.04-0.3,0.07-0.52,0.07-0.67c0-0.14-0.01-0.25-0.04-0.33
		c-0.03-0.08-0.06-0.14-0.11-0.19c-0.05-0.05-0.12-0.09-0.2-0.12s-0.25-0.06-0.5-0.1l0.14-0.61l2.54-0.15h0.96l-2.14,10.75
		c-0.06,0.31-0.11,0.57-0.14,0.78c-0.03,0.21-0.05,0.39-0.05,0.53c0,0.28,0.06,0.49,0.19,0.61s0.35,0.21,0.66,0.24l-0.09,0.62h-3.27
		l0.46-1.94l-0.11-0.04c-0.39,0.55-0.74,0.98-1.08,1.29s-0.66,0.52-0.98,0.65c-0.32,0.13-0.69,0.19-1.11,0.19
		c-0.4,0-0.75-0.1-1.05-0.31c-0.3-0.21-0.54-0.54-0.71-0.99s-0.26-1.02-0.26-1.71c0-0.66,0.07-1.33,0.21-2s0.34-1.3,0.61-1.89
		s0.61-1.08,1.03-1.5s0.88-0.73,1.41-0.95c0.52-0.22,1.1-0.33,1.71-0.33c0.5,0,0.99,0.1,1.46,0.29L282.29,334.08z M281.42,338.88
		c0.03-0.19,0.07-0.41,0.09-0.66s0.04-0.49,0.04-0.73c0-0.42-0.07-0.74-0.21-0.96c-0.14-0.21-0.37-0.32-0.7-0.32
		c-0.53,0-1,0.29-1.4,0.88s-0.74,1.38-0.99,2.38c-0.25,1-0.37,1.89-0.37,2.67c0,0.46,0.06,0.8,0.18,1.03s0.31,0.34,0.57,0.34
		c0.38,0,0.76-0.2,1.14-0.61s0.7-0.88,0.94-1.43c0.24-0.55,0.45-1.3,0.64-2.25L281.42,338.88z"/>
	<path class="st2" d="M288.34,342.23c-0.06,0.32-0.1,0.55-0.12,0.7s-0.03,0.28-0.03,0.38c0,0.27,0.06,0.47,0.19,0.59
		c0.13,0.12,0.35,0.2,0.66,0.24l-0.09,0.62h-3.54l1.33-6.6c0.07-0.38,0.12-0.67,0.15-0.88s0.04-0.39,0.04-0.53
		c0-0.25-0.05-0.42-0.16-0.52c-0.11-0.1-0.33-0.17-0.66-0.21l0.13-0.62l2.49-0.1h0.97L288.34,342.23z M290.31,331.61l-0.44,2.32
		h-2.2l0.47-2.32H290.31z"/>
	<path class="st2" d="M297.9,335.91l0.77-0.68l0.95,0.15l-1.31,6.59c-0.07,0.33-0.12,0.6-0.15,0.8c-0.03,0.2-0.05,0.37-0.05,0.51
		c0,0.28,0.06,0.49,0.19,0.61s0.35,0.21,0.66,0.24l-0.09,0.62h-3.27l0.46-1.94l-0.11-0.04c-0.39,0.55-0.74,0.98-1.08,1.29
		s-0.66,0.52-0.98,0.65c-0.32,0.13-0.69,0.19-1.11,0.19c-0.4,0-0.75-0.1-1.05-0.31c-0.3-0.21-0.54-0.54-0.71-0.99
		s-0.26-1.02-0.26-1.71c0-0.66,0.07-1.33,0.21-2s0.34-1.3,0.62-1.89c0.27-0.58,0.62-1.08,1.03-1.5c0.41-0.42,0.88-0.73,1.41-0.95
		c0.52-0.22,1.1-0.33,1.71-0.33C296.58,335.23,297.31,335.46,297.9,335.91z M296.62,338.88c0.04-0.2,0.07-0.43,0.1-0.68
		c0.03-0.25,0.04-0.49,0.04-0.72c0-0.42-0.07-0.73-0.21-0.95c-0.14-0.21-0.37-0.32-0.7-0.32c-0.53,0-1,0.29-1.4,0.88
		s-0.74,1.38-0.99,2.38c-0.25,1-0.37,1.89-0.37,2.67c0,0.46,0.06,0.8,0.18,1.03s0.31,0.34,0.57,0.34c0.38,0,0.76-0.2,1.14-0.61
		s0.7-0.88,0.94-1.43c0.24-0.55,0.45-1.3,0.64-2.25L296.62,338.88z"/>
</g>
<polygon class="st0" points="182.38,146.12 183.56,145.28 184.74,147.72 183.98,151.51 182.97,151.51 183.65,147.97 "/>
<polygon class="st0" points="182.51,146.3 183.97,145.88 184.61,148.12 183.51,150.86 182.79,150.54 183.52,148.43 "/>
<linearGradient id="SVGID_1_" gradientUnits="userSpaceOnUse" x1="180" y1="252.2953" x2="180" y2="6.8808">
	<stop  offset="0" style="stop-color:#2A2A86"/>
	<stop  offset="1" style="stop-color:#0088CE"/>
</linearGradient>
<path class="st3" d="M278.77,137.77c0-5.43,0-10.85,0-16.31c7.7-3.33,20.65-5.19,22.66-9.97c-0.62-4.28-1.45-8.46-2.51-12.56
	c-3.63-2.36-15.05-0.89-24.6,0.06c-2.04-5.01-4.1-10.06-6.17-15.07c5.81-6.02,16.99-12.74,17.14-17.9
	c-2.21-3.72-4.57-7.28-7.14-10.74c-4.31-0.71-14.22,5.07-22.63,9.59c-3.81-3.83-7.61-7.7-11.42-11.53
	c3.1-7.85,10.92-18.4,9.03-23.21c-3.39-2.54-6.9-4.93-10.56-7.11c-4.22,0.88-11.27,10.12-17.35,17.61
	c-4.99-2.06-9.94-4.16-14.93-6.25c-0.12-8.49,3.16-21.41-0.56-25.01c0-0.03,0-0.03,0-0.06c-3.98-1-8.05-1.83-12.21-2.42
	c-3.63,2.24-6.67,13.68-9.5,23.06c-5.37,0-10.77,0-16.14,0c-3.33-7.82-5.19-21.03-10-22.89C161.86,7,161.86,7,161.83,6.94
	c-3.92,0.62-7.82,1.39-11.65,2.36c-2.54,3.42-1.09,15.22-0.15,25.01c-4.99,2.06-9.97,4.13-14.96,6.19
	c-6.02-5.93-12.69-17.43-17.85-17.34c0-0.03-0.03-0.03-0.06-0.06c-3.57,2.18-7.02,4.51-10.36,7.02c-0.94,4.19,4.84,14.45,9.38,23.09
	c-3.84,3.83-7.64,7.67-11.48,11.47c-7.82-3.16-18.35-11.21-23.07-9.11c-0.03,0-0.03,0-0.06-0.03c-2.48,3.36-4.78,6.81-6.93,10.44
	c0.65,4.22,9.91,11.5,17.44,17.75c-2.1,5.01-4.16,10.03-6.25,15.04c-8.41,0.09-21.18-3.24-24.75,0.5c-0.06,0-0.12,0-0.18,0
	c-1,3.98-1.8,8.08-2.39,12.21c2.04,3.72,13.48,6.87,22.86,9.76c0,5.46-0.03,10.88-0.06,16.31c-7.73,3.33-20.83,5.19-22.69,10.06
	c-0.03,0-0.09,0.03-0.12,0.03c0.59,4.16,1.39,8.26,2.39,12.27c3.36,2.6,15.11,1.09,24.84,0.15c2.04,5.01,4.07,10.06,6.11,15.07
	c-5.87,6.11-17.26,12.86-17.14,18.05c-0.03,0.03-0.03,0.03-0.03,0.03c2.15,3.63,4.48,7.14,6.96,10.5c4.22,0.91,14.31-4.93,22.8-9.5
	c3.81,3.86,7.61,7.7,11.39,11.56c-3.1,7.87-11.03,18.49-9,23.27c3.33,2.54,6.84,4.9,10.44,7.05c4.25-0.83,11.33-10.06,17.44-17.58
	c4.96,2.09,9.94,4.19,14.93,6.28c0.09,8.52-3.21,21.44,0.5,25.01c0,0.03,0,0.03,0,0.06c4.01,1,8.11,1.83,12.27,2.42
	c3.6-2.36,6.67-13.69,9.47-23.01c5.37,0,10.77,0.03,16.14,0.03c3.3,7.82,5.16,20.97,9.94,22.92c4.19-0.65,8.32-1.47,12.33-2.51
	c2.39-3.63,0.94-15.22,0-24.86c4.99-2.09,9.94-4.16,14.93-6.22c5.96,5.87,12.54,17.1,17.67,17.31c3.69-2.24,7.26-4.66,10.68-7.26
	c0.65-4.36-5.02-14.33-9.47-22.8c3.81-3.83,7.61-7.67,11.42-11.5c7.7,3.1,18,10.88,22.83,9.17c2.6-3.48,4.99-7.11,7.17-10.82
	c-1.03-4.31-10.06-11.33-17.38-17.4c2.06-5.04,4.13-10.06,6.19-15.07c8.35-0.12,21.01,3.15,24.66-0.47
	c1.03-4.1,1.86-8.32,2.48-12.59C299.01,143.61,287.89,140.57,278.77,137.77z M140.05,150.17c-6.82,5.13-12.73,10-19.73,15.18
	c-5.44-9.78-8.56-21.05-8.56-33.06c0-12.91,3.59-24.96,9.8-35.22c7.05,6.36,12.39,11.19,18.92,17.1c-2.81,5.54-4.41,11.8-4.41,18.43
	C136.08,138.89,137.51,144.85,140.05,150.17z M178.64,64.72c13.27,0,25.63,3.92,36.03,10.65c-6.95,7.31-13.07,13.28-20.01,20.53
	c-5.38-2.61-11.42-4.08-17.8-4.08c-5.88,0-11.45,1.25-16.5,3.49c-5.86-6.79-11.5-13.34-17.41-20.15
	C153.29,68.55,165.52,64.72,178.64,64.72z M178.64,199.86c-12.08,0-23.4-3.25-33.19-8.92c5.9-6.49,11.79-13.34,17.67-19.92
	c4.29,1.54,8.92,2.38,13.74,2.38c5.23,0,10.22-0.99,14.81-2.78c7.21,6.17,15.25,13.01,22.3,19.05
	C203.73,196.11,191.62,199.86,178.64,199.86z M236.27,166.61c-6.99-6.77-13.97-13.55-20.96-20.35c1.52-4.27,2.35-8.86,2.35-13.66
	c0-5.51-1.1-10.75-3.07-15.54c8.28-6.69,13.67-11.74,22.05-18.46c5.66,9.92,8.92,21.42,8.92,33.69
	C245.55,144.82,242.16,156.55,236.27,166.61z"/>
<g>
	
		<linearGradient id="SVGID_00000091014170201753177460000004444848176423832202_" gradientUnits="userSpaceOnUse" x1="134.9636" y1="98.1036" x2="186.6937" y2="98.1036">
		<stop  offset="0" style="stop-color:#FFF200"/>
		<stop  offset="0.6547" style="stop-color:#EF4123"/>
	</linearGradient>
	<path style="fill:url(#SVGID_00000091014170201753177460000004444848176423832202_);" d="M186.46,62.62
		c-5.16,18.76-34.22,23.03-44.61,35.3c-10.41,12.3-10.97,32.77,12.1,35.66C138.08,93.59,190.59,93.21,186.46,62.62L186.46,62.62z"/>
	
		<linearGradient id="SVGID_00000166675631897198189980000003640105402960577186_" gradientUnits="userSpaceOnUse" x1="160.8235" y1="134.6779" x2="160.8235" y2="58.0846">
		<stop  offset="0" style="stop-color:#004C94"/>
		<stop  offset="1" style="stop-color:#006FBA"/>
	</linearGradient>
	<path style="fill:url(#SVGID_00000166675631897198189980000003640105402960577186_);" d="M186.77,58.08l0.6,4.42
		c1.9,14.11-7.92,22.11-17.43,29.85c-12.19,9.93-23.71,19.31-15.14,40.89l0.57,1.43l-1.53-0.19c-11.99-1.5-16.7-7.43-18.53-12.13
		c-2.94-7.53-0.64-17.35,5.86-25.01c4.24-5,11.3-8.62,18.79-12.45c11.12-5.69,22.63-11.58,25.64-22.51 M185.76,66.96
		c-4.58,9.11-14.93,14.4-24.99,19.55c-7.32,3.74-14.23,7.28-18.23,12c-5.97,7.05-8.2,16.37-5.55,23.18
		c2.23,5.73,6.35,9.2,14.31,10.53c-7.96-21.81,5.58-31.59,17.48-41.28C177.25,84.05,185.29,77.5,185.76,66.96z"/>
</g>
<g>
	
		<linearGradient id="SVGID_00000171687587920201588690000016048068854184149692_" gradientUnits="userSpaceOnUse" x1="175.0517" y1="109.7" x2="179.7108" y2="109.7">
		<stop  offset="0" style="stop-color:#FFF200"/>
		<stop  offset="1" style="stop-color:#F8971D"/>
	</linearGradient>
	<path style="fill:url(#SVGID_00000171687587920201588690000016048068854184149692_);" d="M179.71,109.7c0,1.68-1.04,3.03-2.33,3.03
		c-1.29,0-2.33-1.36-2.33-3.03c0-1.67,1.04-3.03,2.33-3.03C178.67,106.67,179.71,108.02,179.71,109.7z"/>
	
		<linearGradient id="SVGID_00000037691553282839990460000009909047311926632617_" gradientUnits="userSpaceOnUse" x1="153.606" y1="143.7298" x2="212.276" y2="143.7298">
		<stop  offset="0" style="stop-color:#FFF200"/>
		<stop  offset="1" style="stop-color:#F8971D"/>
	</linearGradient>
	<path style="fill:url(#SVGID_00000037691553282839990460000009909047311926632617_);" d="M211.28,126.42
		c-1.86-4.78-6.11-3.33-8.56,0.29c-1.98,3.83-2.13,5.28,0.94,4.98c3.63-5.72,8.44,0.15,1.89,8.38
		c-4.63,5.87-10.18,11.09-14.19,19.67c-2.95-3.18-7.11-4.98-11.42-5.46v-1.17c1.15-0.34,1.89-0.86,1.89-1.44s-0.73-1.09-1.89-1.44
		v-2.36c8.29-0.86,16.08-5.22,19.71-13.39c-15.37,0-30.71,0-46.05,0c3.33,7.7,11.09,12.24,19.47,13.3v2.47
		c-1.11,0.34-1.82,0.85-1.82,1.41c0,0.56,0.7,1.07,1.82,1.41v1.49c-5.52,1.12-10.44,4.34-12.69,9.5c11.27,0,22.51,0,33.78,0
		c-0.18-0.41-0.38-0.83-0.59-1.24c3.89-8.91,8.82-15.01,14.13-19.02C212.02,140.55,213.44,132.02,211.28,126.42z"/>
	
		<linearGradient id="SVGID_00000181050770808435401360000007705244035345051033_" gradientUnits="userSpaceOnUse" x1="176.625" y1="132.0379" x2="176.625" y2="113.6423">
		<stop  offset="0" style="stop-color:#FFF200"/>
		<stop  offset="1" style="stop-color:#F8971D"/>
	</linearGradient>
	<path style="fill-rule:evenodd;clip-rule:evenodd;fill:url(#SVGID_00000181050770808435401360000007705244035345051033_);" d="
		M184.08,119.63c0.14-0.61,0.76-3.63-0.03-4.42c-2.17-2.18-11.37-1.98-13.81,0c-0.91,0.74-0.15,3.96-0.02,4.47
		c-15.89,2.43-16.64,12.37-16.64,12.37l46.06,0C199.65,132.04,198.46,121.99,184.08,119.63z"/>
</g>
<linearGradient id="SVGID_00000054232570766651163380000014830106334346155696_" gradientUnits="userSpaceOnUse" x1="142.1717" y1="102.6879" x2="178.5385" y2="102.6879">
	<stop  offset="3.418910e-03" style="stop-color:#0052A4"/>
	<stop  offset="1" style="stop-color:#0088CE"/>
</linearGradient>
<path style="fill:url(#SVGID_00000054232570766651163380000014830106334346155696_);" d="M178.54,77.81
	c-1.47,2.38-3.43,4.46-5.51,6.36c-2.11,1.88-4.35,3.58-6.65,5.16c-4.55,3.21-9.29,6.03-13.3,9.47c-2,1.71-3.8,3.6-5.19,5.72
	c-1.4,2.12-2.34,4.5-2.82,7.03c-0.93,5.11,0.03,10.61,1.35,16c-1.39-2.42-2.48-5.03-3.27-7.76c-0.75-2.74-1.15-5.65-0.89-8.61
	c0.21-2.95,1.18-5.9,2.7-8.48c1.53-2.59,3.57-4.78,5.75-6.67c4.42-3.76,9.73-5.53,14.52-8.22
	C170.02,85.12,174.39,81.56,178.54,77.81z"/>
<path class="st0" d="M166.58,208.91l-6.87-1.36l-2.63,13.71l2.77,0.53l1.03-5.34l3.01,0.56c0.89,0.21,1.45,0.47,1.62,0.8
	c0.15,0.36,0.21,0.86,0.09,1.56c0,0.18-0.06,0.44-0.12,0.77c-0.06,0.35-0.09,0.68-0.15,0.91c-0.03,0.27-0.06,0.53-0.06,0.83
	c-0.03,0.27-0.03,0.62,0.03,0.97l3.13,0.62l0.06-0.38c-0.24-0.12-0.35-0.32-0.38-0.65c-0.03-0.29,0-0.77,0.09-1.39
	c0.06-0.18,0.12-0.35,0.18-0.62l0.09-0.59c0.18-0.83,0.21-1.51,0.06-2.04c-0.12-0.53-0.5-0.97-1.15-1.33
	c0.74-0.15,1.33-0.44,1.8-0.97c0.47-0.53,0.77-1.18,0.91-1.95c0.18-1.03,0-2.01-0.59-2.92
	C168.94,209.77,167.96,209.17,166.58,208.91z M167.2,213.3c-0.24,1.3-1.03,1.8-2.36,1.53l-3.51-0.71l0.71-3.66l3.6,0.71
	c0.68,0.15,1.15,0.41,1.39,0.8C167.26,212.36,167.31,212.8,167.2,213.3z M172.3,216.84l5.34,0.47l-0.21,2.54l-5.37-0.47
	L172.3,216.84z M157.22,206.82L152.74,220l-2.74-0.94l4.51-13.21L157.22,206.82z M147.93,210.68c0.38,0.5,0.59,1.03,0.68,1.59
	c0.03,0.56-0.09,1.21-0.41,1.92c-0.53,1.15-1.24,1.89-2.12,2.21c-0.89,0.32-1.74,0.41-2.6,0.26c-0.8-0.15-1.47-0.33-2.01-0.59
	c-3.54-1.71-4.72-3.98-3.51-6.81l2.51,1.18c-0.3,0.71-0.3,1.33,0.03,1.89c0.29,0.56,0.83,1,1.5,1.33c1.8,0.85,2.98,0.77,3.48-0.26
	c0.27-0.47,0.27-0.91,0-1.27c-0.27-0.38-0.77-0.86-1.51-1.44c-0.41-0.35-0.8-0.65-1.09-0.86c-1.21-0.88-2.04-1.8-2.51-2.65
	c-0.44-0.89-0.38-1.92,0.21-3.07c0.59-1.18,1.44-1.92,2.57-2.24c1.12-0.3,2.42-0.09,3.92,0.62c1.74,0.83,2.8,1.83,3.19,3.01
	c0.38,1.18,0.35,2.3-0.09,3.42l-2.51-1.21c0.47-1.33-0.12-2.39-1.77-3.1c-1.39-0.59-2.33-0.47-2.83,0.44
	c-0.3,0.65-0.15,1.24,0.41,1.77c0.41,0.32,0.92,0.74,1.47,1.18c0.56,0.44,0.94,0.8,1.15,0.97
	C146.93,209.62,147.52,210.21,147.93,210.68z M136.66,202.69c0.53-1.56,0.15-2.77-1.15-3.66c-0.97-0.62-1.95-0.74-2.95-0.35
	c-0.97,0.41-1.92,1.27-2.77,2.57c0,0.03,0,0.06-0.03,0.12c-0.65,1.06-0.97,2.12-0.97,3.16c0,1.06,0.47,1.89,1.36,2.48
	c1.42,0.94,2.77,0.77,4.04-0.47l2.42,1.59c-1.03,1.12-2.27,1.8-3.63,2.04c-1.36,0.26-2.71-0.09-4.13-0.97
	c-1.56-1.03-2.54-2.39-2.86-4.07c-0.35-1.68,0.12-3.51,1.39-5.51c0.09-0.09,0.15-0.18,0.24-0.33c0.65-0.91,1.33-1.65,2.07-2.21
	c0.71-0.56,1.47-0.91,2.27-1.15c0.8-0.21,1.59-0.24,2.42-0.06c0.83,0.15,1.65,0.47,2.42,1c0.94,0.62,1.68,1.33,2.15,2.18
	c0.47,0.83,0.74,1.68,0.77,2.6c0.03,0.88-0.18,1.77-0.62,2.65L136.66,202.69z M209.65,206.02c-1.21-0.85-2.74-0.97-4.57-0.35
	l-5.81,2.04l4.51,13.18l5.75-2c1.86-0.65,2.98-1.83,3.33-3.54c0.38-1.71,0.24-3.54-0.44-5.46
	C211.8,208.2,210.89,206.94,209.65,206.02z M210.18,214.66c-0.21,1.03-0.8,1.74-1.83,2.1l-2.68,0.94l-2.95-8.64l2.68-0.94
	c1.12-0.38,2.01-0.29,2.65,0.29c0.65,0.59,1.21,1.51,1.68,2.74C210.21,212.42,210.36,213.6,210.18,214.66z M220.51,198.2l3.42,14.42
	l2.54-1.68l-0.74-2.95l4.28-2.8l2.27,1.92l2.66-1.71l-11.62-9.03L220.51,198.2z M223.61,199.94l4.42,3.72l-2.95,1.92l-1.51-5.6
	L223.61,199.94z M214.9,201.33l5.84,12.65l-2.62,1.24l-5.84-12.65L214.9,201.33z M183.1,209.79l0.47,13.95l-2.89,0.09l-0.47-13.95
	L183.1,209.79z M196.52,207.97l2.63,13.69l-2.83,0.56l-7.41-8.67l-0.03,0.03l1.89,9.73l-2.65,0.53l-2.66-13.71l3.01-0.59l7.2,8.46
	h0.06l-1.83-9.53L196.52,207.97z M240.6,193.16c0,1.42-1.15,2.54-2.54,2.54c-1.39,0-2.51-1.12-2.51-2.54c0-1.41,1.12-2.54,2.51-2.54
	C239.45,190.62,240.6,191.74,240.6,193.16z M122.59,193.16c0,1.42-1.12,2.54-2.54,2.54c-1.39,0-2.51-1.12-2.51-2.54
	c0-1.41,1.12-2.54,2.51-2.54C121.47,190.62,122.59,191.74,122.59,193.16z M229.21,51.86l-0.41-2.12l2.09-0.44l0.36,2.12
	L229.21,51.86z M93.41,110.2l-2.54,0.32l3.66-12.86l2.51-0.24l-0.83,2.95l13.25,3.83l-2.1,1.53l-7.76-2.27l-0.86,2.98
	c-0.27,1.03,0,1.92,0.97,2.21c2.39,0.68,4.93,0.03,7.73-1.27l-0.47,1.62c-2.71,0.88-5.69,2.18-8.05,1.53
	c-2.15-0.62-2.69-2.66-2.18-4.39l0.91-3.24l-2.01-0.56L93.41,110.2z M267.7,111.86l0.57-0.45l-2.32-7.65l0.17-0.14l-0.77-2.33
	c0.26-0.27,0.77-0.38,1.06-0.47c1.47-0.5,2.48,0.68,2.98,2.3c0.77,2.39-0.21,4.31-1.18,8.58l1.12-0.38c1.21-3.04,2.71-6.61,1.8-9.47
	c-0.89-2.68-2.63-3.81-4.75-3.19c-0.44,0.15-1.12,0.47-1.62,0.8l-0.59-1.85l0.06-0.07l-5.28-11.44l-1.74,1.89l0.77,1.68l-3.66,1.74
	c-1.86,0.86-2.98,3.86-2.09,5.72c0.18,0.44,0.44,0.8,0.86,1.09l-3.78,1.77l-0.56,2.57l12.48-5.9l1.02,2.22l-0.1,0.08l0.44,1.39
	l-11.54,3.81l-0.88,2.48l13.04-4.31l0.31,0.96l-0.13,0.1l1.12,3.63l-3.57,1.09c-0.62,0.18-1.03,0.21-1.09-0.03
	c-0.03,0,0.06,0,0.03-0.03c0.38-0.74,0.41-1.24,0.29-1.62c-0.18-0.59-0.77-0.83-1.33-0.83c-0.83,0.24-1.59,1.09-2.48,2.63l-3.66,6.4
	l1.15,1.09l3.6-6.46c0.68,0.8,1.77,1.5,3.75,0.88l3.89-1.18l1.12,3.72l-0.32,0.18l0.18,1.21l-4.99,0.71
	c-1.71,0.27-3.51,2.65-3.27,4.42c0.12,0.86,0.53,1.71,1.09,2.27l-4.04,0.56l-1.3,2.3l13.66-1.95l0.34,2.53l-0.25,0.1v7.31h-2.12
	v-2.24c0-3.13-1.44-4.16-2.89-4.16c-3.72,0-6.28,3.8-6.28,6.78c0,0.18,0.03,0.3,0.06,0.47l-3.23,2.07l-0.4-0.84l-1.18,0.84
	l1.26,1.85l-0.67,3.54h1.01l0.76-3.79l-0.25-0.51l3.24-1.83c0.33,0.53,0.92,0.77,1.56,0.77c0.94,0,1.95-0.68,1.95-1.95
	c-0.09-0.88-1-1.42-1.89-1.42c-0.15,0-0.26,0-0.41,0c0-0.06,0-0.15,0-0.24c0-1.86,1.42-3.69,3.21-3.69c1.95,0,2.51,1.36,2.51,2.77
	v3.6h3.78v3.1l2.36-1v-12.36l0.15-0.08l-1.71-12.36L267.7,111.86z M255.14,97.22c-0.56-0.38-1.42-1.06-1.62-1.5
	c-0.33-0.71,0.09-1.74,0.77-2.07l4.57-2.12l1.51,3.27L255.14,97.22z M260.95,120.64c-0.5,0.06-1.39-0.94-1.53-2.04
	c-0.09-0.65-0.24-1.15,0.44-1.27l4.96-0.68l-3.42,3.92L260.95,120.64z M263.14,120.84l3.31-3.98l0.47,3.45L263.14,120.84z
	 M114.54,166.67l-11.68,7.4l-1.39-2.25l0.13-0.13l-3.69-8.32l1.86-0.94l3.39,7.67c0.26,0.59,0.71,0.77,1.12,0.56
	c0.38-0.15,0.56-0.59,0.41-1.98c-0.18-1.86,0.8-3.98,1.83-4.45c0.74-0.32,1.98,0.21,2.33,1.03c0.06,0.09,0.06,0.21,0.09,0.32
	c-0.53,0.65-0.62,1.15-0.3,1.89c0.24,0.56,0.74,0.62,1.3,0.38c0.32-0.15,0.59-0.35,0.82-0.65c0.53-0.59,0.47-1.71,0.24-2.42
	l2.12-5.46l-1.47-0.06l-1.53,3.89c-0.94-0.94-2.86-1.86-4.25-1.24c-1.18,0.53-1.92,2.59-2.33,4.1l-1.89-4.34l7.41-3.33l0.62-2.51
	l-12.6,5.66l-1.17-2.63l0.1-0.08l-0.41-1.42l11.71-3.39l0.97-2.42l-13.25,3.81l-0.76-2.65l11.73-2.75l1.09-2.36l-13.39,3.1
	l-0.5-2.21l0.06-0.03l-0.94-7.55l4.01-0.47l0.65,5.31c0.09,0.88,0.59,1.3,1.24,1.24c0.29-0.06,0.62-0.21,1-0.56l1.45-1.47
	c0.3-0.41,0.44-0.77,0.41-0.97c-0.06-0.38-0.5-0.71-1.18-0.62l-1.18,0.15l-0.38-3.33l6.11-0.77l1.3-2.24l-13.66,1.71l-0.37-3.01
	l0.11-6.84l3.1,0.06c-0.74,0.68-1.33,1.65-1.33,3.36c-0.06,2.18,1.53,3.21,3.25,3.24c2.01,0.03,4.1-1.21,4.16-3.45
	c0-1.3-0.18-2.21-0.56-3.04l3.6,0.06l1.71-2.12l-6.31-0.09c-1.42-0.74-2.8-1.92-2.83-3.16c0-0.74,0.91-1.12,1.62-1.12
	c0.86,0.03,2.04,0.71,3.42,1.77l1.92-1.33c-1.33-1.36-3.04-2.09-4.04-2.12c-1.77-0.03-4.84,1.45-4.87,3.22c0,1,0.44,1.77,1.15,2.62
	l-3.95-0.09l0.15-7.73l-2.36,0.97l-0.29,17.31l0.18-0.06l1.45,11.86l-0.01,0.01l0.02,0.09l0.04,0.33l0.03-0.02l0.44,1.96
	c-0.29,0.24-0.8,0.33-1.09,0.38c-1.53,0.36-2.39-0.88-2.77-2.56c-0.56-2.45,0.56-4.25,1.95-8.44l-1.18,0.29
	c-1.47,2.89-3.24,6.34-2.6,9.26c0.62,2.77,2.27,4.01,4.45,3.6c0.44-0.12,1.15-0.38,1.68-0.65l0.5,2.18l0.19-0.13l1.38,4.85
	l0.73-0.57l-0.67,0.71l5.71,12.98l-0.02,0.03l0.33,0.53c-2.87,2.91-5.16,5.67-4.81,6.72l0.71,2.06l2.01-2.18l-0.62-1.21
	c-0.31-0.63,1.72-2.86,3.32-4.42l0.06,0.09c-1.11,2.6-1.71,5.11-1.28,5.77l0.83,1.41l0.94-2.12l-0.65-0.97
	c-0.24-0.35,0.17-1.83,0.73-3.17l5.76,9.33l1.47-2.13l-4.6-7.46l2.48-1.56c-0.32,1.36-0.09,2.8,0.62,3.92
	c0.15,0.24,0.29,0.44,0.5,0.65c1.18,1.33,3.19,2.09,4.81,1.06c2.24-1.39,2.6-4.45,1.48-6.25c-0.56-0.91-1.65-1.8-2.8-2.3l3.24-2.03
	L114.54,166.67z M96.89,129.16h1.12c0.77,0.88,1.3,2.09,1.27,3.22c0,1.03-0.68,1.74-1.89,1.74c-1.12-0.09-1.8-1.09-1.89-2.24
	C95.54,130.96,95.95,130.22,96.89,129.16z M112.91,175.32c0.41,0.71,0.27,1.62-1.09,2.48c-1.18,0.74-2.54-0.06-3.1-0.94
	c-0.68-1.09-0.71-2.45-0.68-3.66l0.56-0.36C110.23,173.25,112.15,174.08,112.91,175.32z M114.71,90.41l2.45-0.83l-11.39-7.79
	l1.71-2.57l-2.51-0.5l-3.66,5.49l0.17,0.04l-1.62,2.96l-0.18-0.08l-1.15,2.54l2.54,0.09l0.03-0.07l0.09,0.01l0.71-1.3l4.77,2.68
	c0.8,2.22,0.78,3.6,0.33,4.57c-0.38,0.89-1.21,1.36-2.09,1.33c-0.09-1.47-0.97-5.01-2.8-5.87c-1.92-0.91-4.1-0.35-5.13,1.89
	c-0.91,2.01-0.12,3.6,1.56,4.39c1.15,0.44,3.13-0.29,4.25-1.8c0.24,1,0.15,2.12-0.09,3.57c2.95,0.15,5.1-1.3,6.02-3.33
	c0.46-1,0.63-2.14,0.38-3.39l3.45,1.94l2.39-1.06l-12.04-6.72l1.48-2.71l-0.03,0l0.23-0.35L114.71,90.41z M99.55,95.21
	c-1.21-0.56-1.3-1.42-1.09-2.21c0.32-0.74,1.33-0.74,2.51-0.18c0.62,0.29,0.97,0.94,1.27,1.48
	C101.41,94.95,100.08,95.45,99.55,95.21z M231.1,63.18c-1,0.06-1.95,0.44-2.54,1.21c-0.86,1.27-0.06,4.48,1.12,5.43
	c0.87,0.7,2.19,1.16,3.54,1.22l-2.68,2.91l0.41,2.57l9.41-10.18l0.98,0.93l0.88,0.93l-8.76,8.55l0.27,2.59l9.91-9.67l1.35,1.4
	l-0.02,0.04l4.72,5.9l-3.13,2.54l-3.33-4.16c-0.56-0.71-1.21-0.8-1.71-0.38c-0.24,0.18-0.41,0.5-0.53,1l-0.47,2.04
	c-0.03,0.5,0.03,0.86,0.18,1.03c0.24,0.32,0.77,0.35,1.3-0.09l0.91-0.77l2.09,2.62l-4.78,3.89l0.06,2.63l10.71-8.76l1.95,2.42
	l1.21-2.27l-7.37-9.18l0.02-0.05l-0.38-0.4l-0.18-0.22l-0.01,0.02l-2.75-2.86l0.02-0.06l-0.77-0.73l-0.47-0.48l-0.01,0.03
	l-1.93-1.81l0.2-0.26l-3.07-2.42l-0.68,2.45l1.12,0.89l-0.09,0.23l1.06,1l-3.39,3.68c-2.57,0.56-4.16,0.33-5.26-0.55
	c-0.83-0.65-0.77-1.48-0.24-2.15c0.74-0.97,1.74-0.53,2.6,0.12c0.47,0.38,0.97,0.88,1.77,2.33l0.62-3.42l-2.36-1.86v-0.12
	c1.03,0.18,2.48-0.06,3.01-0.77c0.94-1.36,0.41-2.98-0.71-3.86c-0.83-0.62-2.6-1.06-3.57,0.21C230.3,60.06,230.33,61.35,231.1,63.18
	z M232.48,60.53c0.41-0.56,1.12-1.03,1.62-0.62c0.5,0.38,0.44,0.89,0.12,1.3c-0.41,0.56-1.27,0.91-1.89,0.44
	C231.98,61.35,232.16,60.91,232.48,60.53z M192.13,53.45c2.27,0.5,4.45-0.88,4.9-2.95c0.03-0.21,0.03-0.35,0.06-0.53
	c0.38,0.23,0.89,0.44,1.21,0.53c0.32,0.09,1.21,0.24,1.86,0.27L199,56.08l1.68,2.01l2.89-13.66l2.81,0.62l-0.01,0.47l7.02,2.71
	l-1.42,3.8L207,50.09c-0.8-0.29-1.42-0.06-1.65,0.53c-0.12,0.29-0.12,0.68,0.03,1.15l0.59,2.01c0.21,0.44,0.47,0.74,0.65,0.83
	c0.38,0.15,0.86-0.12,1.09-0.77l0.44-1.12l3.1,1.21l-2.21,5.81l1.36,2.24l4.93-13.01l2.13,0.83l-0.04,0.41l3.31,1.77l-1.74,3.3
	c-0.29,0.62-0.59,0.91-0.82,0.77l0.03-0.03c-0.24-0.77-0.62-1.21-0.94-1.39c-0.56-0.29-1.12,0-1.53,0.35
	c-0.38,0.77-0.35,1.92,0.12,3.69l1.92,7.11l1.53-0.09l-1.98-7.14c0.62,0.06,1.3,0,2.01-0.5c0.26,0.88,1,2.09,2.18,2.74
	c0.44,0.21,1.09,0.53,1.71,0.71l-2.3,4.36l0.97,2.51l6.49-12.3l2.68,1.45l0.27-2.54l-13.17-7.08l-0.01-0.38l-11.37-4.44l-0.05-0.37
	l-8.59-1.89l0.47,2.54l2.98,0.62l-0.94,4.43c-0.62,0.15-1.68,0.21-2.24,0.09c-1.24-0.27-1.71-1-2.45-1.62
	c0.77-0.53,1.24-1.39,1.42-2.21c0.44-2.06-1.77-4.36-3.92-4.84c-1.06-0.24-2.42-0.27-3.51,0.59l0.91,2.04
	c1.27-0.5,1.62-0.68,2.24-0.62c0.24,0,0.5,0.06,0.71,0.09c1,0.24,1.89,0.91,1.65,2.01c-0.15,0.62-0.77,1.18-1.3,1.36
	c-2.15-0.44-3.6,0.03-3.69,0.44c-0.06,0.3,0.18,0.53,0.18,0.53l1.06,1.68c1.27-0.56,2.48-0.56,2.74-0.5
	c0.74,0.15,0.68,1.24,0.53,1.98c-0.21,1.03-1,1.77-2.42,1.77c-1.92-0.44-3.63-2.57-3.78-4.48c-0.03-0.38-0.18-0.38-0.41-0.44
	c-0.3-0.06-0.97,0.41-1.09,0.94C188.03,50.12,190.21,53.04,192.13,53.45z M226.56,55.1l-2.21,4.25c-0.8-0.15-1.89-0.35-2.77-0.83
	c-0.68-0.38-1.21-0.91-1.15-1.74c0.06-0.06,0.12-0.12,0.18-0.24l1.92-3.63L226.56,55.1z M265.82,145.5
	c-1.68-0.35-3.36,0.86-4.22,3.04l-1.24-0.27l0.21-0.91c0.12-0.5-0.12-0.86-0.56-0.97c-0.26-0.03-0.71,0.06-1.18,0.29l-1.98,1.3
	c-0.24,0.18-0.59,0.59-0.62,0.83c-0.09,0.38,0.03,0.68,0.56,0.8l1.21,0.27l-0.78,3.72l-4.86-1.69l-2.15,1.44l13.01,4.54l-0.83,2.42
	l-11.38-4.42l-2.21,1.36l12.86,4.98l-0.57,1.54l-0.1,0l-1.53,3.45l-3.39-1.53c-0.59-0.26-0.94-0.5-0.83-0.74
	c0-0.03,0.06,0.03,0.06,0c0.77-0.29,1.12-0.68,1.27-1.03c0.26-0.56-0.06-1.12-0.44-1.5c-0.8-0.36-1.92-0.24-3.6,0.35l-6.9,2.39
	l0.18,1.59l6.88-2.48c0,1.03,0.38,2.3,2.27,3.16l3.69,1.65l-1.55,3.5l-0.13-0.02l-4.4,6.87l-1.74-1.15l1.8-2.83
	c0.97-1.51,1.06-3.6-0.83-4.87c-2.06-1.3-5.28-0.94-8.14-0.89l-0.92,1.42c3.04-0.41,5.67-0.29,7.76,1.06
	c0.86,0.56,0.86,1.51,0.26,2.39l-1.65,2.59l-6.78-4.45l-2.42,0.86l11.54,7.58l-1.65,2.6l2.48,0.47l7.19-11.15l0.01,0l0.02-0.05
	l0.01-0.01l0,0l3.51-7.93l0.15-0.01l2.33-6.16l-0.08,0l1.53-4.48l-0.34,0.02l0.63-3l-2.6,0.89l-0.71,3.36l0.07,0.02l-0.07,0.22
	l-4.78-1.66l0.83-3.97l4.01,0.86c1.06,0.24,3.48-0.74,3.83-2.54C268.03,147.53,267.27,145.79,265.82,145.5z M265.03,149.27
	l-2.27-0.47c0.32-0.74,1.03-1.33,1.92-1.12c0.71,0.15,1.18,0.24,1.09,0.8C265.61,149.22,265.47,149.39,265.03,149.27z M261.99,142.4
	l-1.86-0.23l0.74-5.34l1.86,0.27L261.99,142.4z M208.35,64.3c0.44-0.91,0.36-1.5,0.15-1.59c-0.77-0.41-1.53-0.12-2.21,0.06
	l-0.94-2.01c0.91-0.65,1.77-0.74,2.83-0.18c1.68,0.86,2.39,3.86,1.83,4.95c-0.97,1.92-3.48,1.56-5.4,0.56
	c-2.33-1.21-3.92-4.63-4.66-6.78l1.15-0.38c0.65,1.98,2.1,4.51,4.28,5.63C206.26,65.04,207.85,65.25,208.35,64.3z M177.96,39.38
	l-17.08,1.18l0.07,0.15l-0.1-0.12l-13.07,3.81l0.16,0.2l-1.84,0.74c-0.24-0.24-0.41-0.74-0.53-1.03c-0.59-1.47,0.53-2.54,2.09-3.19
	c2.3-0.94,4.25-0.09,8.56,0.62l-0.47-1.12c-3.07-1.03-6.73-2.24-9.47-1.12c-2.6,1.06-3.57,2.89-2.8,4.99
	c0.15,0.41,0.53,1.09,0.89,1.56l-2.04,0.86l0.14,0.15l-0.41,0.18c-3.97-2.6-7.87-4.38-9.03-3.85l-2.39,1.06l3.13,1.89l1.62-0.74
	c0.73-0.32,3.19,0.87,5.25,2.27l-1.41,0.63l-0.01-0.01l-0.16,0.09l-0.2,0.09l0.01,0.01l-13.05,7.3l0.15,0.13l-1.15,0.9
	c-3.47-2.65-6.69-4.75-7.71-4.21l-1.92,1l2.39,1.68l1.12-0.77c0.59-0.44,3.22,1.44,4.96,2.83c-2.77-0.83-5.49-1.09-6.11-0.56
	l-1.27,1.06l2.24,0.62l0.83-0.77c0.37-0.32,2.25-0.04,3.75,0.45l-1.4,1.1l-0.1-0.05l-6.14,6.37l2.39,0.94l2.12-2.21l3.22,3.13
	c-0.24,0.62-0.74,1.53-1.12,1.98c-0.89,0.92-1.8,0.92-2.69,1.24c-0.03-0.97-0.5-1.8-1.09-2.39c-1.5-1.47-4.6-0.83-6.14,0.8
	c-0.77,0.8-1.51,1.92-1.39,3.33l2.21,0.29c0.24-1.36,0.3-1.77,0.65-2.24c0.15-0.24,0.32-0.44,0.47-0.59
	c0.71-0.74,1.74-1.12,2.54-0.35c0.47,0.44,0.59,1.3,0.44,1.83c-1.51,1.65-1.86,3.1-1.56,3.36c0.21,0.24,0.56,0.18,0.56,0.18
	l1.95-0.03c0.18-1.39,0.86-2.42,1.03-2.6c0.53-0.56,1.42,0.06,1.95,0.59c0.74,0.71,0.94,1.77,0.21,2.98
	c-1.39,1.42-4.07,1.77-5.78,0.86c-0.32-0.15-0.38-0.06-0.56,0.12c-0.21,0.24-0.18,1.06,0.21,1.45c2.83,0.91,6.46,0.59,7.82-0.86
	c1.62-1.68,1.62-4.28,0.09-5.75c-0.12-0.12-0.24-0.21-0.41-0.33c0.44-0.21,0.86-0.53,1.12-0.74c0.24-0.27,0.83-0.94,1.18-1.47
	l3.89,3.8l2.57-0.41l-9.94-9.67l2.04-2.14l0.17,0.1l1.15-0.91l7.52,9.73l2.57-0.03l-8.47-10.97l1.66-1.32l4.15-2.31l0.56,1
	l-2.45,1.36c-1.06,0.62-1.18,1.92-0.65,2.95c0.62,1.12,2.12,1.92,3.24,2.01c-0.09,0.5-0.03,1.18,0.21,1.62
	c0.86,1.53,3.36,2.59,4.99,1.71c1.21-0.68,2.89-2.48,3.75-3.92l0.83,1.5l2.54,0.38l-6.7-12.18l2.13-1.17l0.05,0.05l1.33-0.62
	l4.96,11.27l2.51,0.62l-5.61-12.71l1.55-0.7l4.52,11.23l2.48,0.71l-5.13-12.83l2.83-1.18l-0.05-0.05l2.53-0.74l1.18,4.16l-0.86,0.24
	c-0.65,0.21-0.88,0.59-0.77,1c0.06,0.24,0.24,0.47,0.59,0.74l2.07,1.42c0.38,0.27,0.83,0.38,1.15,0.29c0.41-0.12,0.8-0.68,0.5-1.68
	l-1.92-6.73l2.74-0.8l3.36,11.86l2.39,0.94l-3.78-13.39l2.57-0.74l0.05,0.12l7.41-0.53l0.24,3.1c-0.74-0.65-1.77-1.15-3.45-1.03
	c-2.12,0.15-3.01,1.83-2.89,3.57c0.12,2.01,1.53,4.01,3.75,3.86c1.27-0.09,2.18-0.38,2.98-0.83l0.24,3.63l2.24,1.56l-0.44-6.37
	c0.59-1.47,1.62-3.01,2.86-3.16c0.71-0.03,1.18,0.86,1.24,1.56c0.06,0.86-0.53,2.09-1.45,3.57l1.47,1.83
	c1.21-1.47,1.8-3.24,1.74-4.25c-0.15-1.77-1.86-4.75-3.6-4.6c-1,0.06-1.71,0.56-2.48,1.39l-0.27-3.98l7.61-0.56L177.96,39.38z
	 M140.7,59.79c-0.86,2.3-2.69,4.45-3.54,4.93c-0.74,0.41-1.53-0.27-1.95-1c-0.29-0.56-0.38-1.24,0.18-1.56l3.01-1.68l-1.83-1.3
	l-3.27,1.8c-0.83,0.24-1.48-0.18-1.8-0.77c-0.24-0.47-0.27-0.86,0.32-1.18l3.69-2.06l-1.53-2.8l2.77-1.56L140.7,59.79z
	 M166.69,50.15c-1,0.09-1.77-0.53-1.86-1.77c0-1.12,0.91-1.89,2.04-2.06c0.91-0.06,1.65,0.29,2.8,1.15l0.09,1.15
	C168.97,49.44,167.82,50.09,166.69,50.15z"/>
<path class="st2" d="M59.12,352.09c80.29-1.31,161.47-1.32,241.76,0C229.48,353.26,155.55,353.66,59.12,352.09L59.12,352.09z"/>
</svg>
